<svg width="16" height="16" viewBox="0 0 16 16" fill="none" xmlns="http://www.w3.org/2000/svg">
<path d="M3.65036 12.2667H2.44178C2.38226 12.2667 2.32353 12.2515 2.2701 12.2221C2.21666 12.1927 2.16995 12.15 2.13354 12.0972C2.09713 12.0445 2.07198 11.9831 2.06004 11.9178C2.0481 11.8524 2.04967 11.7849 2.06464 11.7203L2.96728 7.73138C2.9885 7.63727 3.03716 7.55378 3.10553 7.49417C3.1739 7.43455 3.25808 7.40221 3.34471 7.40227H7.15781C7.25926 7.40227 7.35655 7.35712 7.42828 7.27675C7.50001 7.19637 7.54031 7.08737 7.54031 6.9737C7.54031 6.86004 7.50001 6.75103 7.42828 6.67066C7.35655 6.59029 7.25926 6.54513 7.15781 6.54513L3.75641 6.53712C3.21781 6.53712 2.79062 6.40361 2.48736 6.13659C2.16861 5.85789 2 5.44234 2 4.93499V4.17065C2.00039 4.05459 2.0418 3.94342 2.11516 3.86148C2.18851 3.77954 2.28785 3.73349 2.39144 3.7334H6.69905L7.15632 3.7374C7.91316 3.74604 8.63639 4.08896 9.16885 4.69166C9.70132 5.29436 10 6.10814 10 6.95618C10 7.80422 9.70132 8.618 9.16885 9.2207C8.63639 9.8234 7.91316 10.1663 7.15632 10.175H4.9334L4.63253 11.4026C4.53392 11.8185 4.18598 12.2667 3.65036 12.2667ZM2.63005 11.6659H3.65036C4.012 11.6659 4.1118 11.2527 4.11269 11.2484V11.244L4.46839 9.79378C4.48424 9.73044 4.51821 9.67468 4.56508 9.63506C4.61196 9.59545 4.66914 9.57417 4.72785 9.57449H7.15632C7.77145 9.56671 8.35902 9.28746 8.79155 8.79734C9.22407 8.30722 9.46665 7.64577 9.46665 6.95651C9.46665 6.26726 9.22407 5.60581 8.79155 5.11569C8.35902 4.62557 7.77145 4.34632 7.15632 4.33854H7.07351L6.69637 4.3342H2.53622V4.93499C2.53622 5.59921 2.94672 5.93632 3.7576 5.93632L7.15751 5.944C7.40117 5.944 7.63485 6.05245 7.80715 6.2455C7.97944 6.43854 8.07623 6.70036 8.07623 6.97337C8.07623 7.24637 7.97944 7.5082 7.80715 7.70124C7.63485 7.89429 7.40117 8.00274 7.15751 8.00274H3.45791L2.63005 11.6659Z" fill="#fff"/>
<path d="M13.9627 6.24508C13.9491 6.22939 13.9323 6.2168 13.9134 6.20819C13.8946 6.19957 13.8741 6.19513 13.8533 6.19516H12.0859L12.3424 4.37726C12.3455 4.35663 12.344 4.33558 12.3381 4.31557C12.3323 4.29555 12.3221 4.27705 12.3084 4.26133C12.2947 4.24562 12.2777 4.23306 12.2587 4.22453C12.2397 4.216 12.219 4.2117 12.1982 4.21192H10.7865C10.7514 4.21161 10.7174 4.22412 10.6908 4.24713C10.6642 4.27013 10.647 4.30204 10.6423 4.33687L10.38 6.19487H8.57304C8.53781 6.19457 8.5037 6.20717 8.47712 6.23029C8.45054 6.25342 8.43334 6.28546 8.42876 6.32039L8.23399 7.73172C8.23099 7.75233 8.23249 7.77335 8.23838 7.79333C8.24427 7.8133 8.25442 7.83177 8.26813 7.84745C8.28184 7.86314 8.29878 7.87566 8.3178 7.88418C8.33681 7.89269 8.35744 7.89699 8.37827 7.89677H10.1454L9.90126 9.61713C9.89817 9.63779 9.89959 9.65887 9.90545 9.67892C9.9113 9.69897 9.92144 9.71751 9.93515 9.73326C9.94887 9.74901 9.96585 9.76159 9.98491 9.77014C10.004 9.77869 10.0247 9.78299 10.0455 9.78276H11.4571C11.4923 9.78308 11.5263 9.77056 11.5529 9.74756C11.5795 9.72455 11.5967 9.69264 11.6014 9.65782L11.8513 7.89763H13.6597C13.6949 7.89794 13.729 7.88538 13.7555 7.86232C13.7821 7.83926 13.7993 7.80728 13.804 7.7724L13.9987 6.36108C14.0015 6.34048 13.9999 6.31953 13.9939 6.29963C13.9879 6.27973 13.9778 6.26132 13.9641 6.24566" fill="#fff"/>
</svg>
