<?xml version="1.0" encoding="utf-8"?>
<!-- Generator: Adobe Illustrator 24.2.3, SVG Export Plug-In . SVG Version: 6.00 Build 0)  -->
<svg version="1.1" id="Capa_1" xmlns="http://www.w3.org/2000/svg" xmlns:xlink="http://www.w3.org/1999/xlink" x="0px" y="0px"
	 viewBox="0 0 699.7 583.4" style="enable-background:new 0 0 699.7 583.4;" xml:space="preserve">
<style type="text/css">
	.st0{fill:none;stroke:#FA0050;stroke-width:18.86;stroke-linecap:round;stroke-linejoin:round;}
</style>
<g id="Capa_2_1_">
	<g id="Capa_1-2">
		<path class="st0" d="M190.6,487.9c0,0,136.4,83.8,197,83.8c54.5,0,68-240.6,68-240.6"/>
		<path class="st0" d="M219.5,417.6c0,0,95.4,178.3,168.1,154.1c83.6-27.9,118.8-281.9,118.8-281.9"/>
		<path class="st0" d="M10.9,291.5c0.1,1,0.2,2,0.3,3.1c0.6,15.5,15.2,144.7,38.1,170.8l0.4,0.3l8.3,12.3c6,9,15.2,15.2,25.8,17.5
			c29.9,6.1,91.9,14.2,117.1-17c4.3-5.6,7.2-12.1,8.3-19.1c0.6-3.1,1.8-7.9,2.4-11.4c5.3-28.9,23.1-91.4,79.3-105.4
			c0,0,47.8-15.5,108.3-5.4c0.6,0.1,1.3,0.2,1.9,0.4c6.7,1.5,52.7,9.5,85.7-31.5c0,0,33.1-36.5,89-41.8c0,0,68.7-9.6,103.3-13.8
			c9-1.1,14-11.1,9.5-19.2C661.5,182.2,579.4,44,503.2,27.2c-0.7-0.1-1.4-0.3-2.1-0.5c-13.1-3.8-167.9-46-330.2,17.7
			c-1.5,0.6-3,1.3-4.5,2.1C145.5,57.6-6.8,144.1,10.9,291.5z"/>
		<path class="st0" d="M181,197.5l-1.3,0.3l-6.1,1.3L104,214.9c-1.1,0.2-1.8,1.3-1.5,2.4c0,0,0,0,0,0.1l2.5,11
			c2.8,12.1,12.8,16.8,28.3,13.3l54.9-12.4c5.8-1.3,11.6,2.4,12.8,8.2c1.3,5.7-2.3,11.4-8,12.8l-61.6,14c-0.9,0.2-1.5,1-1.6,1.9
			l-1.5,60.8c0,0.6,0.3,1.2,0.7,1.6c0.5,0.4,1.1,0.5,1.7,0.4l19.5-4.5c7.3-1.7,9.4-8.5,9.5-11.9l1-22.2l39.2-8.9
			c23.4-4.4,38.8-27,34.3-50.4c-4.4-23.4-27-38.8-50.4-34.3C183,197,182,197.2,181,197.5"/>
	</g>
</g>
</svg>
