<svg width="16" height="16" viewBox="0 0 16 16" fill="none" xmlns="http://www.w3.org/2000/svg">
<path fill-rule="evenodd" clip-rule="evenodd" d="M7.98414 2C5.60766 2 3.68288 3.94902 3.68288 6.35112V6.83913C2.8911 7.01621 2.29999 7.73013 2.29999 8.58275V8.91591C2.29999 9.90119 3.08964 10.7017 4.06587 10.7017C4.67839 10.7017 5.1732 10.1995 5.1732 9.58224V7.91642C5.1732 7.48622 4.93306 7.11238 4.58047 6.92499V6.35112C4.58047 4.44757 6.1053 2.90617 7.98414 2.90617C9.86298 2.90617 11.3878 4.44757 11.3878 6.35112V6.92517C11.0353 7.11258 10.7952 7.48638 10.7952 7.91653V9.58236C10.7952 10.0865 11.1251 10.5136 11.5797 10.6534C11.2644 11.396 10.6102 11.9558 9.81508 12.1343C9.61539 11.6422 9.13675 11.2947 8.5769 11.2947C7.83708 11.2947 7.23907 11.9013 7.23907 12.6474C7.23907 13.3934 7.83708 14 8.5769 14C9.17775 14 9.68505 13.5998 9.85441 13.05C11.158 12.8217 12.2073 11.8457 12.5563 10.5754C13.2082 10.3125 13.6684 9.66838 13.6684 8.91603V8.58286C13.6684 7.7302 13.0772 7.01626 12.2854 6.83923V6.35112C12.2854 3.94902 10.3606 2 7.98414 2ZM3.19758 8.58275C3.19758 8.09601 3.58728 7.70317 4.06587 7.70317C4.18075 7.70317 4.27561 7.79768 4.27561 7.91642L4.27561 9.58224C4.27561 9.70098 4.18075 9.79549 4.06587 9.79549C3.58728 9.79549 3.19758 9.40265 3.19758 8.91591V8.58275ZM11.6928 7.91653C11.6928 7.7978 11.7876 7.70328 11.9025 7.70328C12.3811 7.70328 12.7708 8.09613 12.7708 8.58286V8.91603C12.7708 9.40277 12.3811 9.79561 11.9025 9.79561C11.7876 9.79561 11.6928 9.7011 11.6928 9.58236V7.91653ZM8.13666 12.6474C8.13666 12.3998 8.33472 12.2009 8.5769 12.2009C8.81908 12.2009 9.01713 12.3998 9.01713 12.6474C9.01713 12.8949 8.81908 13.0938 8.5769 13.0938C8.33472 13.0938 8.13666 12.8949 8.13666 12.6474Z" fill="#fff"/>
</svg>
