<svg width="128" height="128" viewBox="0 0 128 128" fill="none" xmlns="http://www.w3.org/2000/svg">
<path d="M97.88 26H44.19C43.5271 26.0005 42.8829 26.2205 42.3583 26.6258C41.8336 27.031 41.458 27.5987 41.29 28.24C39.29 35.99 32.88 62.06 32.88 78.09V102H88.88V78.16C88.88 59.09 97.88 26 97.88 26Z" fill="white"/>
<path d="M61.88 83C71.8211 83 79.88 74.9411 79.88 65C79.88 55.0589 71.8211 47 61.88 47C51.9389 47 43.88 55.0589 43.88 65C43.88 74.9411 51.9389 83 61.88 83Z" fill="#2DE1A0"/>
<path opacity="0.11" d="M40.0799 40H90.2799C92.0799 40 94.5499 39.32 95.1099 37.12C96.6499 30.49 97.8799 26 97.8799 26H44.1899C43.527 26.0005 42.8829 26.2205 42.3582 26.6258C41.8335 27.031 41.4579 27.5987 41.2899 28.24C40.6799 30.58 39.6799 34.59 38.5699 39.49C39.0024 39.8235 39.5338 40.003 40.0799 40Z" fill="#40004D"/>
<path d="M97.88 26H44.19C43.5271 26.0005 42.8829 26.2205 42.3583 26.6258C41.8336 27.031 41.458 27.5987 41.29 28.24C39.29 35.99 32.88 62.06 32.88 78.09V102H88.88V78.16C88.88 59.09 97.88 26 97.88 26Z" stroke="#100423" stroke-linecap="round" stroke-linejoin="round"/>
<path d="M97.88 26C97.88 26 88.88 59.09 88.88 78.09V102H100.88C102.471 102 103.997 101.368 105.123 100.243C106.248 99.1174 106.88 97.5913 106.88 96V78.09C106.88 59.09 97.88 26 97.88 26Z" fill="white"/>
<path opacity="0.11" d="M105.46 99.88C106.281 99.1344 106.788 98.1051 106.88 97V78.09C106.88 59.09 97.88 26 97.88 26V88.5L105.46 99.88Z" fill="#40004D"/>
<path d="M97.88 54.5V88.5L102.99 96.16" stroke="#100423" stroke-linecap="round" stroke-linejoin="round"/>
<path d="M92.14 97.1192L95.75 91.6992" stroke="#100423" stroke-linecap="round" stroke-linejoin="round"/>
<path d="M97.88 26C97.88 26 88.88 59.09 88.88 78.09V102H100.88C102.471 102 103.997 101.368 105.123 100.243C106.248 99.1174 106.88 97.5913 106.88 96V78.09C106.88 59.09 97.88 26 97.88 26Z" stroke="#100423" stroke-linecap="round" stroke-linejoin="round"/>
<path d="M87 36H39.08C38.6053 36.0089 38.1379 35.8824 37.7325 35.6354C37.3271 35.3884 37.0003 35.0311 36.7905 34.6052C36.5808 34.1793 36.4966 33.7025 36.5478 33.2305C36.5991 32.7585 36.7837 32.3109 37.08 31.94L41 27.13C41.2783 26.7809 41.6309 26.4983 42.0323 26.3028C42.4336 26.1073 42.8736 26.0039 43.32 26H97.88L91.68 33.75C91.1182 34.4516 90.406 35.0181 89.596 35.4075C88.786 35.797 87.8988 35.9994 87 36Z" fill="white" stroke="#100423" stroke-linecap="round" stroke-linejoin="round"/>
<path d="M65.38 54H58.38V76H65.38V54Z" fill="white"/>
<path d="M50.88 61.4902V68.4902H72.88V61.4902H50.88Z" fill="white"/>
<path opacity="0.11" d="M44.6 78.57L41.88 74.22C41.3877 73.4234 41.1247 72.5064 41.12 71.57V70H42.62V65C42.62 64.7348 42.5146 64.4804 42.3271 64.2929C42.1396 64.1054 41.8852 64 41.62 64H30.62C30.3548 64 30.1004 64.1054 29.9129 64.2929C29.7254 64.4804 29.62 64.7348 29.62 65V70H31.12V71.57C31.12 72.5071 30.8567 73.4253 30.36 74.22L27.64 78.57C26.6467 80.1593 26.12 81.9958 26.12 83.87V102H46.12V83.87C46.1238 81.9953 45.5968 80.1578 44.6 78.57Z" fill="#40004D"/>
<path opacity="0.11" d="M76.63 82H72.63V102H76.63V82Z" fill="#40004D"/>
<path d="M36.89 74.22L39.6 78.57C40.5968 80.1578 41.1238 81.9953 41.12 83.87V102H21.12V83.87C21.1197 81.9944 21.6502 80.1569 22.65 78.57L25.36 74.22C25.8567 73.4253 26.12 72.5071 26.12 71.57V70H36.12V71.57C36.123 72.5081 36.3898 73.4264 36.89 74.22Z" fill="#EA044E"/>
<path opacity="0.16" d="M36.63 82H33.63V102H36.63V82Z" fill="#40004D"/>
<path opacity="0.28" d="M39.61 78.57L36.89 74.22C36.3933 73.4253 36.13 72.5071 36.13 71.57V70H33.13V72.09C33.1268 72.6905 33.2318 73.2867 33.44 73.85L35.36 79C35.8693 80.3486 36.1301 81.7784 36.13 83.22V102H41.13V83.87C41.13 81.9958 40.6033 80.1593 39.61 78.57Z" fill="#40004D"/>
<path opacity="0.16" d="M36.16 72C36.1501 71.8568 36.1501 71.7132 36.16 71.57V70H26.16V71.57C26.1699 71.7132 26.1699 71.8568 26.16 72H36.16Z" fill="#40004D"/>
<path d="M21.13 96.9902V83.9902H30.13C30.6604 83.9902 31.1691 84.2009 31.5442 84.576C31.9193 84.9511 32.13 85.4598 32.13 85.9902V94.9902C32.13 95.5207 31.9193 96.0294 31.5442 96.4044C31.1691 96.7795 30.6604 96.9902 30.13 96.9902H21.13Z" fill="white"/>
<path d="M21.13 88H29.13" stroke="#CAB8CD" stroke-linecap="round" stroke-linejoin="round"/>
<path d="M21.13 92H26.13" stroke="#CAB8CD" stroke-linecap="round" stroke-linejoin="round"/>
<path d="M36.89 74.22L39.6 78.57C40.5968 80.1578 41.1238 81.9953 41.12 83.87V102H21.12V83.87C21.1197 81.9944 21.6502 80.1569 22.65 78.57L25.36 74.22C25.8567 73.4253 26.12 72.5071 26.12 71.57V70H36.12V71.57C36.123 72.5081 36.3898 73.4264 36.89 74.22Z" stroke="#100423" stroke-linecap="round" stroke-linejoin="round"/>
<path d="M25.63 64H36.63C36.8952 64 37.1496 64.1054 37.3371 64.2929C37.5246 64.4804 37.63 64.7348 37.63 65V70H24.63V65C24.63 64.7348 24.7354 64.4804 24.9229 64.2929C25.1104 64.1054 25.3648 64 25.63 64Z" fill="#7C6282" stroke="#100423" stroke-linecap="round" stroke-linejoin="round"/>
<path d="M72.63 82H36.63V102H72.63V82Z" fill="white"/>
<path d="M72.63 96H36.63V102H72.63V96Z" fill="#72E6FF"/>
<path d="M72.63 82H36.63V102H72.63V82Z" stroke="#100423" stroke-linecap="round" stroke-linejoin="round"/>
<path d="M40.63 87H53.63" stroke="#47839F" stroke-linecap="round" stroke-linejoin="round"/>
<path d="M40.63 91H46.63" stroke="#5FBBD5" stroke-linecap="round" stroke-linejoin="round"/>
<path d="M50.63 91H56.63" stroke="#5FBBD5" stroke-linecap="round" stroke-linejoin="round"/>
<path d="M56.63 98.5H61.63" stroke="white" stroke-linecap="round" stroke-linejoin="round"/>
<path d="M72.63 82H66.63V102H72.63V82Z" fill="#EAE3EB"/>
<path d="M72.63 96H66.63V102H72.63V96Z" fill="#5FBBD5"/>
<path opacity="0.11" d="M70.63 85H72.63V91H70.63C70.3648 91 70.1104 90.8946 69.9229 90.7071C69.7354 90.5196 69.63 90.2652 69.63 90V86C69.63 85.7348 69.7354 85.4804 69.9229 85.2929C70.1104 85.1054 70.3648 85 70.63 85Z" fill="#40004D"/>
<path d="M72.63 82H66.63V102H72.63V82Z" stroke="#100423" stroke-linecap="round" stroke-linejoin="round"/>
</svg>
