<svg xmlns="http://www.w3.org/2000/svg" viewBox="0 0 459.06 459.06"><defs><style>.cls-1{fill:none;stroke:#fff;stroke-linecap:round;stroke-linejoin:round;stroke-width:22.73px;}</style></defs><title>FB-LG</title><g id="Capa_2" data-name="Capa 2"><g id="Modo_de_aislamiento" data-name="Modo de aislamiento"><path class="cls-1" d="M447.69,44.47V414.59a33.1,33.1,0,0,1-33.1,33.1H328.1a14.76,14.76,0,0,1-14.76-14.76V280.82h43.24a5.58,5.58,0,0,0,5.53-4.78l4.42-30.37,5-34.38a5.53,5.53,0,0,0-5.47-6.32H308.17a51,51,0,0,1-.66-8.16,49.71,49.71,0,0,1,49.73-49.73h20.57a11.92,11.92,0,0,0,11.92-11.92V84.28A13.33,13.33,0,0,0,376.4,70.94H341.9A108.28,108.28,0,0,0,233.64,179.2V205h-47a9.08,9.08,0,0,0-9.08,9.08v57.69a9.07,9.07,0,0,0,9.08,9.08h47V432.93a14.76,14.76,0,0,1-14.76,14.76H44.47a33.11,33.11,0,0,1-33.11-33.1V44.47A33.12,33.12,0,0,1,44.47,11.36H414.59A33.11,33.11,0,0,1,447.69,44.47Z"/></g></g></svg>