<svg xmlns="http://www.w3.org/2000/svg" viewBox="0 0 1412.25 1412.25"><defs><style>.cls-1{fill:none;stroke:#fff;stroke-linecap:round;stroke-linejoin:round;stroke-width:45px;}</style></defs><g id="Capa_2" data-name="Capa 2"><g id="Capa_1-2" data-name="Capa 1"><path class="cls-1" d="M1152,512.93,1389.75,676.4v624.18a89.16,89.16,0,0,1-89.17,89.17H111.67a89.16,89.16,0,0,1-89.17-89.17V676.4L260.28,512.93"/><polyline class="cls-1" points="200.84 1211.42 498.07 973.63 914.19 973.63 1211.42 1211.42"/><line class="cls-1" x1="1389.75" y1="676.4" x2="1033.08" y2="914.19"/><line class="cls-1" x1="22.5" y1="676.4" x2="379.17" y2="914.19"/><path class="cls-1" d="M1152,825V82a59.43,59.43,0,0,0-59.45-59.45H319.73A59.43,59.43,0,0,0,260.28,82V825"/><line class="cls-1" x1="438.62" y1="200.84" x2="557.51" y2="200.84"/><line class="cls-1" x1="557.51" y1="379.17" x2="973.63" y2="379.17"/><line class="cls-1" x1="438.62" y1="557.51" x2="973.63" y2="557.51"/><line class="cls-1" x1="438.62" y1="735.85" x2="973.63" y2="735.85"/></g></g></svg>