<svg width="128" height="128" viewBox="0 0 128 128" fill="none" xmlns="http://www.w3.org/2000/svg">
<path d="M91.83 109.499H35.17C33.7128 109.545 32.297 109.01 31.2338 108.012C30.1706 107.015 29.547 105.636 29.5 104.179V36.8188C29.547 35.3616 30.1706 33.9828 31.2338 32.9852C32.297 31.9876 33.7128 31.453 35.17 31.4988H91.83C93.2872 31.453 94.703 31.9876 95.7662 32.9852C96.8294 33.9828 97.453 35.3616 97.5 36.8188V104.179C97.453 105.636 96.8294 107.015 95.7662 108.012C94.703 109.01 93.2872 109.545 91.83 109.499Z" fill="#5FBBD5"/>
<path d="M91.83 105.499H35.17C33.7128 105.545 32.297 105.01 31.2338 104.012C30.1706 103.015 29.547 101.636 29.5 100.179V32.8188C29.547 31.3616 30.1706 29.9828 31.2338 28.9852C32.297 27.9876 33.7128 27.453 35.17 27.4988H91.83C93.2872 27.453 94.703 27.9876 95.7662 28.9852C96.8294 29.9828 97.453 31.3616 97.5 32.8188V100.179C97.453 101.636 96.8294 103.015 95.7662 104.012C94.703 105.01 93.2872 105.545 91.83 105.499Z" fill="#C1F9FE"/>
<path d="M97.5 100.18C97.453 101.637 96.8294 103.016 95.7662 104.013C94.703 105.011 93.2872 105.546 91.83 105.5H35.17C33.7128 105.546 32.297 105.011 31.2338 104.013C30.1706 103.016 29.547 101.637 29.5 100.18" stroke="#47839F" stroke-linecap="round" stroke-linejoin="round"/>
<path d="M91.83 109.499H35.17C33.7128 109.545 32.297 109.01 31.2338 108.012C30.1706 107.015 29.547 105.636 29.5 104.179V32.8188C29.547 31.3616 30.1706 29.9828 31.2338 28.9852C32.297 27.9876 33.7128 27.453 35.17 27.4988H91.83C93.2872 27.453 94.703 27.9876 95.7662 28.9852C96.8294 29.9828 97.453 31.3616 97.5 32.8188V104.179C97.453 105.636 96.8294 107.015 95.7662 108.012C94.703 109.01 93.2872 109.545 91.83 109.499Z" stroke="#100423" stroke-linecap="round" stroke-linejoin="round"/>
<path d="M90.5 31.5H36.5C34.8431 31.5 33.5 32.8431 33.5 34.5V98.5C33.5 100.157 34.8431 101.5 36.5 101.5H90.5C92.1569 101.5 93.5 100.157 93.5 98.5V34.5C93.5 32.8431 92.1569 31.5 90.5 31.5Z" fill="#F1FCFF" stroke="#72E6FF" stroke-miterlimit="10"/>
<path d="M74.3 23.4953H68.9V19.8972C68.9 18.4657 68.3311 17.093 67.3184 16.0808C66.3057 15.0686 64.9322 14.5 63.5 14.5C62.0678 14.5 60.6943 15.0686 59.6816 16.0808C58.6689 17.093 58.1 18.4657 58.1 19.8972V23.4953H52.7C50.7904 23.4953 48.9591 24.2534 47.6088 25.603C46.2586 26.9525 45.5 28.7829 45.5 30.6915V33.5H81.5V30.6915C81.5 28.7829 80.7414 26.9525 79.3912 25.603C78.0409 24.2534 76.2096 23.4953 74.3 23.4953Z" fill="#EA044E"/>
<path opacity="0.7" d="M63.5 20.4789C64.3284 20.4789 65 19.8077 65 18.9797C65 18.1517 64.3284 17.4805 63.5 17.4805C62.6716 17.4805 62 18.1517 62 18.9797C62 19.8077 62.6716 20.4789 63.5 20.4789Z" fill="#451F4D"/>
<path opacity="0.25" d="M81.5 30.4727H45.5V33.4711H81.5V30.4727Z" fill="#40004D"/>
<path d="M74.3 23.4953H68.9V19.8972C68.9 18.4657 68.3311 17.093 67.3184 16.0808C66.3057 15.0686 64.9322 14.5 63.5 14.5C62.0678 14.5 60.6943 15.0686 59.6816 16.0808C58.6689 17.093 58.1 18.4657 58.1 19.8972V23.4953H52.7C50.7904 23.4953 48.9591 24.2534 47.6088 25.603C46.2586 26.9525 45.5 28.7829 45.5 30.6915V33.5H81.5V30.6915C81.5 28.7829 80.7414 26.9525 79.3912 25.603C78.0409 24.2534 76.2096 23.4953 74.3 23.4953Z" stroke="#100423" stroke-linecap="round" stroke-linejoin="round"/>
<path d="M81.5 48.5H57.5" stroke="#5FBBD5" stroke-width="2" stroke-linecap="round" stroke-linejoin="round"/>
<path d="M47.5 45.5H43.5C42.9477 45.5 42.5 45.9477 42.5 46.5V50.5C42.5 51.0523 42.9477 51.5 43.5 51.5H47.5C48.0523 51.5 48.5 51.0523 48.5 50.5V46.5C48.5 45.9477 48.0523 45.5 47.5 45.5Z" stroke="#5FBBD5" stroke-miterlimit="10"/>
<path d="M81.5 66.5H57.5" stroke="#5FBBD5" stroke-width="2" stroke-linecap="round" stroke-linejoin="round"/>
<path d="M47.5 63.5H43.5C42.9477 63.5 42.5 63.9477 42.5 64.5V68.5C42.5 69.0523 42.9477 69.5 43.5 69.5H47.5C48.0523 69.5 48.5 69.0523 48.5 68.5V64.5C48.5 63.9477 48.0523 63.5 47.5 63.5Z" stroke="#5FBBD5" stroke-miterlimit="10"/>
<path d="M81.5 84.5H57.5" stroke="#5FBBD5" stroke-width="2" stroke-linecap="round" stroke-linejoin="round"/>
<path d="M47.5 81.5H43.5C42.9477 81.5 42.5 81.9477 42.5 82.5V86.5C42.5 87.0523 42.9477 87.5 43.5 87.5H47.5C48.0523 87.5 48.5 87.0523 48.5 86.5V82.5C48.5 81.9477 48.0523 81.5 47.5 81.5Z" stroke="#5FBBD5" stroke-miterlimit="10"/>
</svg>
