<svg xmlns="http://www.w3.org/2000/svg" viewBox="0 0 1477.82 1477.82"><defs><style>.cls-1{fill:none;stroke:#fff;stroke-linecap:round;stroke-linejoin:round;stroke-width:45px;}</style></defs><g id="Capa_2" data-name="Capa 2"><g id="Capa_1-2" data-name="Capa 1"><path class="cls-1" d="M583.16,1455.29H84.8A62.26,62.26,0,0,1,22.5,1393V209.39a62.28,62.28,0,0,1,62.3-62.3H209.39"/><path class="cls-1" d="M956.93,147.09h124.59a62.28,62.28,0,0,1,62.29,62.3V645.45"/><path class="cls-1" d="M707.75,147.09a124.59,124.59,0,0,0-249.18,0H334V334H832.34V147.09Z"/><path class="cls-1" d="M1019.22,645.45V302.83a31.17,31.17,0,0,0-31.15-31.15H832.34"/><path class="cls-1" d="M334,271.68H178.24a31.16,31.16,0,0,0-31.15,31.15v996.72a31.14,31.14,0,0,0,31.15,31.15H583.16"/><line class="cls-1" x1="333.98" y1="520.86" x2="832.34" y2="520.86"/><line class="cls-1" x1="333.98" y1="707.75" x2="832.34" y2="707.75"/><line class="cls-1" x1="333.98" y1="894.63" x2="583.16" y2="894.63"/><path class="cls-1" d="M969.4,1380.55l-261.64,74.77,74.75-261.65,447.22-447.2a132.14,132.14,0,0,1,186.88,186.88Z"/><line class="cls-1" x1="1173.62" y1="802.44" x2="1360.51" y2="989.32"/><line class="cls-1" x1="782.51" y1="1193.64" x2="969.4" y2="1380.52"/></g></g></svg>