<?xml version="1.0" encoding="utf-8"?>
<!-- Generator: Adobe Illustrator 24.2.3, SVG Export Plug-In . SVG Version: 6.00 Build 0)  -->
<svg version="1.1" id="Capa_1" xmlns="http://www.w3.org/2000/svg" xmlns:xlink="http://www.w3.org/1999/xlink" x="0px" y="0px"
	 viewBox="0 0 420.3 474.4" style="enable-background:new 0 0 420.3 474.4;" xml:space="preserve">
<style type="text/css">
	.st0{fill:none;stroke:#FA0050;stroke-width:18.86;stroke-linecap:round;stroke-linejoin:round;}
</style>
<g id="Capa_2_1_">
	<g id="Capa_1-2">
		<path class="st0" d="M76.3,223.9c0.7,2.6-0.9,5.3-3.5,6c-2.6,0.7-5.3-0.9-6-3.5c-0.7-2.6,0.9-5.3,3.5-6
			C72.8,219.7,75.5,221.3,76.3,223.9C76.3,223.9,76.3,223.9,76.3,223.9"/>
		<path class="st0" d="M351.5,262.7l44.8-12c10.5-2.9,16.7-13.8,13.9-24.3L363.9,54.2c-2.9-10.5-13.7-16.7-24.3-13.9l-7.9,2.1"/>
		<path class="st0" d="M74.2,111.7L24,125.2c-10.5,2.9-16.7,13.7-13.9,24.3l46.3,172.2c2.9,10.5,13.7,16.7,24.3,13.9l185-49.6"/>
		<path class="st0" d="M232.7,138.2c0,16.4-13.3,29.7-29.7,29.7s-29.7-13.3-29.7-29.7V59c0-16.4,13.3-29.7,29.7-29.7
			s29.7,13.3,29.7,29.7V138.2z"/>
		<path class="st0" d="M173.2,158c0,16.4-13.3,29.7-29.7,29.7c-16.4,0-29.7-13.3-29.7-29.7l0,0V78.8c0-16.4,13.3-29.7,29.7-29.7
			s29.7,13.3,29.7,29.7V158z"/>
		<path class="st0" d="M292.1,118.4c0,16.4-13.3,29.7-29.7,29.7s-29.7-13.3-29.7-29.7l0,0V39.1c0-16.4,13.3-29.7,29.7-29.7
			s29.7,13.3,29.7,29.7V118.4z"/>
		<path class="st0" d="M252.5,326.4c0-26.8,15.4-51.2,39.6-62.6"/>
		<path class="st0" d="M113.8,326.6v9.6c0,12.5,5.9,24.2,15.8,31.7l7.9,5.9c10,7.5,15.8,19.2,15.8,31.7V465"/>
		<path class="st0" d="M292.1,263.7v-66.1c0-16.4,13.3-29.7,29.7-29.7c16.4,0,29.7,13.3,29.7,29.7l0,0v108.9c0,23.6-14,45-35.7,54.5
			c-14.4,6.3-23.8,20.6-23.8,36.3V465"/>
	</g>
</g>
</svg>
