<svg xmlns="http://www.w3.org/2000/svg" viewBox="0 0 300.26 361.37"><defs><style>.cls-1{fill:none;stroke:#fa0050;stroke-linecap:round;stroke-linejoin:round;stroke-width:10px;}</style></defs><g id="Capa_2" data-name="Capa 2"><g id="Capa_1-2" data-name="Capa 1"><line class="cls-1" x1="203.6" y1="295.26" x2="5" y2="295.26"/><path class="cls-1" d="M104.3,322a3.82,3.82,0,1,1-3.82,3.82A3.82,3.82,0,0,1,104.3,322"/><path class="cls-1" d="M203.6,180.69V325.82a30.57,30.57,0,0,1-30.55,30.55H35.55A30.57,30.57,0,0,1,5,325.82V35.55A30.57,30.57,0,0,1,35.55,5H104.3"/><polyline class="cls-1" points="111.94 96.66 157.77 142.49 203.6 96.66"/><line class="cls-1" x1="157.77" y1="142.49" x2="157.77" y2="5"/><polyline class="cls-1" points="203.6 50.83 249.43 5 295.26 50.83"/><line class="cls-1" x1="249.43" y1="5" x2="249.43" y2="142.49"/></g></g></svg>