<?xml version="1.0" encoding="utf-8"?>
<!-- Generator: Adobe Illustrator 26.0.2, SVG Export Plug-In . SVG Version: 6.00 Build 0)  -->
<svg version="1.1" xmlns="http://www.w3.org/2000/svg" xmlns:xlink="http://www.w3.org/1999/xlink" x="0px" y="0px"
	 viewBox="0 0 500 500" style="enable-background:new 0 0 500 500;" xml:space="preserve">
<style type="text/css">
	.st0{display:none;}
	.st1{display:inline;fill:#FAC137;stroke:#FFFFFF;stroke-width:0.25;stroke-miterlimit:10;}
	.st2{fill:none;stroke:#FA0050;stroke-width:14;stroke-miterlimit:10;}
	.st3{fill:none;stroke:#FFFFFF;stroke-width:14;stroke-miterlimit:10;}
</style>
<g id="Layer_2" class="st0">
	<rect x="22.26" y="22.26" class="st1" width="455.48" height="464.65"/>
</g>
<g id="Layer_1">
	<g>
		<g>
			<path class="st2" d="M273.15,274.11l24.21,24.21l96.88,96.87c9.89,9.89,10.54,25.4,1.47,34.47c-9.07,9.07-24.57,8.4-34.45-1.49
				L259.54,316.47c-6.96-0.07-14.75-1.67-23.53-5.23 M278.75,288.95 M225.89,226.85l-46.34-46.35c-36.74-36.74-73.4-73.4-95.5-95.5
				c-3.12-3.11-7.02-4.53-11.37-3.98c-3.07,0.39-7.6,3.33-8.39,10.9c-3.23,31.07,19.54,84.98,100.5,165.93
				c5.33,5.33,10.45,10.22,15.37,14.72 M265.12,145.17l5.89-5.89c0.04-0.04,0.06-0.07,0.09-0.1L265.12,145.17z M436.22,134.82
				c-5.14-5.15-12.29-6.4-15.89-2.8l-72.47,72.47c-3.61,3.6-10.33,2.77-14.98-1.89c-4.62-4.63-5.47-11.35-1.86-14.95l72.47-72.47
				c3.6-3.6,2.34-10.75-2.8-15.88c-5.14-5.14-12.29-6.4-15.89-2.8l-72.52,72.42c-3.61,3.6-10.33,2.77-14.98-1.88
				c-4.63-4.63-5.47-11.35-1.86-14.95l72.52-72.41c3.6-3.61,2.35-10.75-2.78-15.88c-5.14-5.15-12.29-6.4-15.89-2.8l-78.28,78.28
				c-25.51,25.58-17.34,43.38-2.78,59.51L66.81,400.21c-9.89,9.89-10.56,25.39-1.49,34.46c9.07,9.07,24.58,8.41,34.47-1.48
				l201.43-201.43c16.15,14.57,33.98,22.75,59.61-2.88l78.19-78.18C442.61,147.1,441.35,139.95,436.22,134.82z"/>
		</g>
		<path class="st3" d="M274.23,279.4"/>
		<path class="st3" d="M240.97,312.3"/>
	</g>
</g>
</svg>
