<?xml version="1.0" encoding="utf-8"?>
<!-- Generator: Adobe Illustrator 25.3.1, SVG Export Plug-In . SVG Version: 6.00 Build 0)  -->
<svg version="1.1" xmlns="http://www.w3.org/2000/svg" xmlns:xlink="http://www.w3.org/1999/xlink" x="0px" y="0px"
	 viewBox="0 0 640 640" style="enable-background:new 0 0 640 640;" xml:space="preserve">
<style type="text/css">
	.st0{display:none;}
	.st1{display:inline;fill:#FFFF33;stroke:#000000;stroke-width:2.9046;stroke-miterlimit:10;}
	.st2{display:inline;}
	.st3{fill:#FFFF33;}
	.st4{display:inline;fill:#FFFF33;}
	.st5{fill:#FA0050;}
</style>
<g id="Layer_1" class="st0">
	<path class="st1" d="M82.4,553.54c0,5.77,0,10.75,0,17.7c5.79,0,11.15,0,16.52,0c114.05,0,228.09-0.07,342.14,0.15
		c7.94,0.02,20.57-3.92,20.43,9.52c-0.13,12.65-12.31,8.4-19.78,8.41c-119.61,0.22-239.22,0.16-358.83,0.14
		c-19.55,0-20.09-0.16-19.54-19.21c0.33-11.24-1.54-25.87,4.58-32.64c5.53-6.11,20.58-3.6,33.55-5.14c0-4.74,0-10.12,0-15.51
		c0-83.01,0-166.01,0-249.02c0-3.71-1.08-7.97,0.38-10.99c1.85-3.81,5.78-6.62,8.82-9.85c2.75,3.05,6.41,5.7,7.97,9.28
		c1.36,3.13,0.4,7.3,0.4,11.01c0,83.01,0,166.01,0,249.02c0,5.42,0,10.84,0,16.93c139.31,0,276.86,0,416.79,0
		c0-5.27,0-10.58,0-15.89c0-83.47,0-166.94,0.01-250.41c0-4.17-0.91-8.77,0.55-12.38c1.25-3.1,5.28-6.99,8.11-7.01
		c2.84-0.02,7.09,3.79,8.24,6.85c1.54,4.12,0.85,9.12,0.85,13.75c0.03,82.54,0.02,165.09,0.02,247.63c0,5.48,0,10.95,0,18.17
		c9.11,0,16.83,0.2,24.53-0.05c9.28-0.3,13.72,3.65,13.41,13.21c-0.33,10.19-0.24,20.4-0.05,30.6c0.15,8.28-3.81,11.66-11.87,11.63
		c-30.6-0.12-61.2,0.27-91.78-0.42c-4.17-0.09-8.22-5.18-12.33-7.95c4.18-3.26,8.25-9.16,12.56-9.34
		c22.68-0.96,45.41-0.47,68.13-0.49c5,0,10.01,0,15.88,0c0-6.5,0-11.79,0-17.7C408.78,553.54,245.82,553.54,82.4,553.54z"/>
	<g class="st2">
		<line class="st3" x1="131.94" y1="296.99" x2="131.94" y2="252.12"/>
		<g>
			<path d="M140.66,296.99c0-5.07,0-10.13,0-15.2c0-8.03,0-16.06,0-24.09c0-1.86,0-3.72,0-5.58c0-4.56-4.01-8.92-8.71-8.71
				c-4.72,0.21-8.71,3.83-8.71,8.71c0,5.07,0,10.13,0,15.2c0,8.03,0,16.06,0,24.09c0,1.86,0,3.72,0,5.58c0,4.56,4.01,8.92,8.71,8.71
				C136.66,305.49,140.66,301.88,140.66,296.99L140.66,296.99z"/>
		</g>
	</g>
	<path class="st4" d="M413.84,129.63c0-13.67,0.25-24.58-0.07-35.47c-0.29-10,3.94-14.24,14.1-14.05
		c20.39,0.39,40.8,0.61,61.18-0.08c11.97-0.41,16.63,3.69,16.32,15.98c-0.65,26.41,0.06,52.85-0.37,79.27
		c-0.13,7.85,2.19,12.46,9.18,16.65c34.92,20.96,69.46,42.56,104.11,63.96c3.14,1.94,7.15,3.46,8.97,6.31
		c1.93,3.03,3.41,8.37,1.96,10.94c-1.44,2.55-6.93,4.25-10.35,3.85c-3.81-0.45-7.35-3.59-10.88-5.76
		c-88.63-54.67-177.34-109.23-265.73-164.29c-8.78-5.47-14.78-5.24-23.48,0.06C228.63,161.84,138.2,216.22,47.85,270.72
		c-0.79,0.48-1.6,0.94-2.41,1.38c-6.64,3.64-14.27,11.15-20.14,0.99c-5.25-9.09,4.05-12.69,10.21-16.41
		c55.06-33.26,110.17-66.43,165.27-99.64c39.64-23.89,79.42-47.54,118.78-71.88c8.36-5.17,14.48-5.01,22.59,0.22
		C364.92,100.08,388.24,113.93,413.84,129.63z M485.76,99.74c-18.2,0-35.07,0-53.07,0c0,12.36-0.33,23.86,0.21,35.32
		c0.15,3.15,2.07,7.43,4.56,9.06c15.35,9.99,31.1,19.37,48.3,29.92C485.76,148.18,485.76,124.44,485.76,99.74z"/>
	<path class="st4" d="M493.93,365.33c-0.01,21.3-0.38,42.61,0.15,63.9c0.28,10.98-3.04,16.07-14.92,15.94
		c-42.12-0.44-84.25-0.4-126.38-0.02c-11.09,0.1-14.38-4.48-14.3-15c0.37-43.52,0.4-87.06-0.02-130.58
		c-0.11-11.03,4.41-14.78,14.81-14.72c42.13,0.21,84.25,0.22,126.38,0c10.77-0.06,14.67,4.58,14.42,15.19
		C493.58,321.79,493.93,343.56,493.93,365.33z M406.31,355.1c0-17.54,0-34.34,0-51.51c-16.59,0-32.1,0-48.12,0
		c0,17.58,0,34.37,0,51.51C374.65,355.1,390.16,355.1,406.31,355.1z M425.73,354.98c17.18,0,32.75,0,48.41,0
		c0-17.69,0-34.51,0-51.24c-16.63,0-32.15,0-48.41,0C425.73,321.13,425.73,337.59,425.73,354.98z M358.29,375.26
		c0,17.9,0,34.31,0,51.91c14.36,0,27.73,0.4,41.04-0.32c2.77-0.15,7.48-4.32,7.6-6.82c0.73-14.65,0.36-29.36,0.36-44.76
		C390.1,375.26,374.58,375.26,358.29,375.26z M425.57,426.13c17.12,0,32.91,0,48.81,0c0-17.52,0-33.91,0-50.55
		c-16.65,0-32.45,0-48.81,0C425.57,392.64,425.57,408.66,425.57,426.13z"/>
	<path class="st4" d="M166.07,426.58c0.01-26.88-0.21-53.77,0.06-80.65c0.35-34.37,26.84-60.61,60.94-60.77
		c34.16-0.16,61.02,25.81,61.25,60.27c0.37,54.69,0.1,109.39,0.17,164.09c0.01,6.84-0.26,14.87-9.12,13.29
		c-3.7-0.66-8.52-9.04-8.58-13.97c-0.63-52.37-0.3-104.75-0.46-157.13c-0.07-23.76-10.12-39.57-28.6-46.06
		c-28.02-9.84-56.56,9.72-56.95,40.27c-0.67,51.44-0.24,102.9-0.28,154.35c0,3.71,1.19,8.02-0.3,10.98
		c-2.29,4.55-6.43,8.17-9.78,12.19c-2.79-4.01-7.89-7.96-7.99-12.04C165.73,483.14,166.06,454.86,166.07,426.58z"/>
	<path class="st4" d="M265.57,415.44c-6.98,4.68-11.12,9.51-14,8.85c-3.37-0.78-7.38-6.14-7.79-9.88c-0.28-2.56,5.09-8.04,7.97-8.06
		C255.24,406.32,258.76,410.67,265.57,415.44z"/>
	<path class="st4" d="M485.76,99.74c0,24.7,0,48.43,0,74.3c-17.19-10.55-32.94-19.93-48.3-29.92c-2.5-1.62-4.41-5.91-4.56-9.06
		c-0.54-11.46-0.21-22.96-0.21-35.32C450.69,99.74,467.56,99.74,485.76,99.74z"/>
	<path class="st4" d="M406.31,355.1c-16.15,0-31.66,0-48.12,0c0-17.14,0-33.93,0-51.51c16.02,0,31.53,0,48.12,0
		C406.31,320.76,406.31,337.56,406.31,355.1z"/>
	<path class="st4" d="M425.73,354.98c0-17.4,0-33.86,0-51.24c16.25,0,31.78,0,48.41,0c0,16.73,0,33.55,0,51.24
		C458.48,354.98,442.91,354.98,425.73,354.98z"/>
	<path class="st4" d="M358.29,375.26c16.29,0,31.81,0,49,0c0,15.4,0.37,30.1-0.36,44.76c-0.12,2.5-4.83,6.67-7.6,6.82
		c-13.31,0.72-26.68,0.32-41.04,0.32C358.29,409.56,358.29,393.16,358.29,375.26z"/>
	<path class="st4" d="M425.57,426.13c0-17.47,0-33.49,0-50.55c16.36,0,32.16,0,48.81,0c0,16.64,0,33.04,0,50.55
		C458.49,426.13,442.69,426.13,425.57,426.13z"/>
</g>
<g id="Layer_2">
	<g>
		<g>
			<g>
				<path class="st5" d="M581.29,555.38c-4.57,0-9.13,0-13.7,0c-12.32,0-24.64,0-36.96,0c-18.26,0-36.53,0-54.79,0
					c-22.28,0-44.56,0-66.85,0c-24.32,0-48.64,0-72.96,0c-24.72,0-49.43,0-74.15,0c-22.89,0-45.78,0-68.66,0
					c-19.41,0-38.82,0-58.23,0c-13.96,0-27.91,0-41.87,0c-6.59,0-13.2-0.16-19.79,0c-0.29,0.01-0.58,0-0.87,0
					c2.96,2.96,5.92,5.92,8.87,8.87c0-11.01,0-22.02,0-33.03c-2.96,2.96-5.92,5.92-8.87,8.87c4.57,0,9.13,0,13.7,0
					c12.32,0,24.64,0,36.96,0c18.26,0,36.53,0,54.79,0c22.28,0,44.56,0,66.85,0c24.32,0,48.64,0,72.96,0c24.72,0,49.43,0,74.15,0
					c22.89,0,45.78,0,68.66,0c19.41,0,38.82,0,58.23,0c13.96,0,27.91,0,41.87,0c6.59,0,13.2,0.16,19.79,0c0.29-0.01,0.58,0,0.87,0
					c-2.96-2.96-5.92-5.92-8.87-8.87c0,11.01,0,22.02,0,33.03c0,4.64,4.08,9.09,8.87,8.87c4.81-0.22,8.87-3.9,8.87-8.87
					c0-11.01,0-22.02,0-33.03c0-4.8-4.07-8.87-8.87-8.87c-4.57,0-9.13,0-13.7,0c-12.32,0-24.64,0-36.96,0c-18.26,0-36.53,0-54.79,0
					c-22.28,0-44.56,0-66.85,0c-24.32,0-48.64,0-72.96,0c-24.72,0-49.43,0-74.15,0c-22.89,0-45.78,0-68.66,0
					c-19.41,0-38.82,0-58.23,0c-13.96,0-27.91,0-41.87,0c-6.59,0-13.2-0.09-19.79,0c-0.29,0-0.58,0-0.87,0
					c-4.8,0-8.87,4.07-8.87,8.87c0,11.01,0,22.02,0,33.03c0,4.8,4.07,8.87,8.87,8.87c4.57,0,9.13,0,13.7,0c12.32,0,24.64,0,36.96,0
					c18.26,0,36.53,0,54.79,0c22.28,0,44.56,0,66.85,0c24.32,0,48.64,0,72.96,0c24.72,0,49.43,0,74.15,0c22.89,0,45.78,0,68.66,0
					c19.41,0,38.82,0,58.23,0c13.96,0,27.91,0,41.87,0c6.59,0,13.2,0.09,19.79,0c0.29,0,0.58,0,0.87,0c4.64,0,9.09-4.08,8.87-8.87
					C589.95,559.44,586.26,555.38,581.29,555.38z"/>
			</g>
		</g>
		<g>
			<g>
				<path class="st5" d="M116.6,524.32c0-31.37,0-62.75,0-94.12c0-49.78,0-99.56,0-149.34c0-11.41,0-22.83,0-34.24
					c0-12.53-19.48-12.55-19.48,0c0,31.37,0,62.75,0,94.12c0,49.78,0,99.56,0,149.34c0,11.41,0,22.83,0,34.24
					C97.12,536.85,116.6,536.88,116.6,524.32L116.6,524.32z"/>
			</g>
		</g>
		<g>
			<g>
				<path class="st5" d="M552.41,528.27c0-31.76,0-63.52,0-95.27c0-50.26,0-100.52,0-150.78c0-11.64,0-23.28,0-34.92
					c0-12.61-19.59-12.63-19.59,0c0,31.76,0,63.52,0,95.27c0,50.26,0,100.52,0,150.78c0,11.64,0,23.28,0,34.92
					C532.82,540.87,552.41,540.89,552.41,528.27L552.41,528.27z"/>
			</g>
		</g>
		<g>
			<g>
				<path class="st5" d="M419.65,432.64c0-43.89,0-87.79,0-131.68c0-6.28,0-12.56,0-18.84c0-9.23-14.34-9.24-14.34,0
					c0,43.89,0,87.79,0,131.68c0,6.28,0,12.56,0,18.84C405.31,441.86,419.65,441.88,419.65,432.64L419.65,432.64z"/>
			</g>
		</g>
		<g>
			<g>
				<path class="st5" d="M483.8,350.2c-43.89,0-87.79,0-131.68,0c-6.28,0-12.56,0-18.84,0c-9.23,0-9.24,14.34,0,14.34
					c43.89,0,87.79,0,131.68,0c6.28,0,12.56,0,18.84,0C493.03,364.54,493.04,350.2,483.8,350.2L483.8,350.2z"/>
			</g>
		</g>
		<g>
			<g>
				<path class="st5" d="M33.68,267.64c9.88-5.85,19.76-11.71,29.65-17.56c23.73-14.06,47.47-28.12,71.2-42.17
					c28.71-17.01,57.43-34.02,86.14-51.03c24.83-14.7,49.65-29.41,74.48-44.11c8.15-4.83,16.3-9.66,24.45-14.49
					c3.85-2.28,8.12-4.32,11.74-6.96c0.16-0.11,0.34-0.2,0.51-0.3c-3.32,0-6.63,0-9.95,0c32.24,20.02,64.47,40.04,96.71,60.05
					c50.95,31.64,101.9,63.28,152.85,94.92c11.62,7.22,23.24,14.43,34.86,21.65c10.81,6.71,20.72-10.34,9.95-17.03
					c-32.24-20.02-64.47-40.04-96.71-60.05c-50.95-31.64-101.9-63.28-152.85-94.92c-11.62-7.22-23.24-14.43-34.86-21.65
					c-2.96-1.84-6.98-1.76-9.95,0c-9.88,5.85-19.76,11.71-29.65,17.56c-23.73,14.06-47.47,28.12-71.2,42.17
					c-28.71,17.01-57.43,34.02-86.14,51.03c-24.83,14.7-49.65,29.41-74.48,44.11c-12.03,7.13-24.44,13.86-36.2,21.44
					c-0.17,0.11-0.34,0.2-0.51,0.3C12.82,257.07,22.73,274.12,33.68,267.64L33.68,267.64z"/>
			</g>
		</g>
		<g>
			<g>
				<path class="st5" d="M488.21,188.14c1.62,0,3.23,0,4.85,0c5.33,0,9.86-4.52,9.86-9.86c0-29.91,0-59.83,0-89.74
					c0-4.26,0-8.52,0-12.79c0-5.33-4.52-9.86-9.86-9.86c-25.29,0-50.59,0-75.88,0c-3.62,0-7.25,0-10.87,0
					c-5.33,0-9.86,4.52-9.86,9.86c0,17.71,0,35.42,0,53.13c0,12.69,19.72,12.71,19.72,0c0-17.71,0-35.42,0-53.13
					c-3.29,3.29-6.57,6.57-9.86,9.86c25.29,0,50.59,0,75.88,0c3.62,0,7.25,0,10.87,0c-3.29-3.29-6.57-6.57-9.86-9.86
					c0,29.91,0,59.83,0,89.74c0,4.26,0,8.52,0,12.79c3.29-3.29,6.57-6.57,9.86-9.86c-1.62,0-3.23,0-4.85,0
					C475.52,168.42,475.5,188.14,488.21,188.14L488.21,188.14z"/>
			</g>
		</g>
		<g>
			<g>
				<path class="st5" d="M485.66,423.27c-44.87,0-89.74,0-134.62,0c-6.39,0-12.79,0-19.18,0c3.29,3.29,6.57,6.57,9.86,9.86
					c0-46.1,0-92.19,0-138.29c0-6.48,0-12.97,0-19.45c-3.29,3.29-6.57,6.57-9.86,9.86c44.87,0,89.74,0,134.62,0
					c6.39,0,12.79,0,19.18,0c-3.29-3.29-6.57-6.57-9.86-9.86c0,46.1,0,92.19,0,138.29c0,6.48,0,12.97,0,19.45
					c0,12.69,19.72,12.71,19.72,0c0-46.1,0-92.19,0-138.29c0-6.48,0-12.97,0-19.45c0-5.33-4.52-9.86-9.86-9.86
					c-44.87,0-89.74,0-134.62,0c-6.39,0-12.79,0-19.18,0c-5.33,0-9.86,4.52-9.86,9.86c0,46.1,0,92.19,0,138.29
					c0,6.48,0,12.97,0,19.45c0,5.33,4.52,9.86,9.86,9.86c44.87,0,89.74,0,134.62,0c6.39,0,12.79,0,19.18,0
					C498.35,442.99,498.37,423.27,485.66,423.27z"/>
			</g>
		</g>
		<g>
			<g>
				<path class="st5" d="M179.54,503.62c0-25.56,0-51.11,0-76.67c0-29.44-0.08-58.88,0-88.33c0.03-10.68,2.68-20.71,8.99-29.45
					c2.39-3.31,7.31-7.71,11.89-10.22c6.68-3.65,14.23-4.8,21.75-4.88c12.68-0.15,12.71-19.87,0-19.72
					c-15.61,0.18-30.62,4.66-42.35,15.26c-11.53,10.42-17.93,25.47-19.61,40.71c-1.06,9.65-0.4,19.67-0.4,29.36
					c0,37.51,0,75.03,0,112.54c0,10.47,0,20.94,0,31.41C159.83,516.31,179.54,516.33,179.54,503.62L179.54,503.62z"/>
			</g>
		</g>
		<g>
			<g>
				<path class="st5" d="M285.03,503.62c0-27.22,0-54.43,0-81.65c0-28.18,0.29-56.37,0-84.55c-0.17-16.43-5.71-32.51-16.88-44.7
					c-11.7-12.77-28.52-18.17-45.48-18.37c-12.69-0.15-12.7,19.57,0,19.72c12.72,0.15,24.09,4.06,32.25,13.4
					c2.86,3.26,6.21,9,7.94,14.37c1.66,5.17,2.39,10.3,2.44,15.73c0.09,9.08,0,18.17,0,27.26c0,36.46,0,72.91,0,109.37
					c0,9.81,0,19.62,0,29.43C265.32,516.31,285.03,516.33,285.03,503.62L285.03,503.62z"/>
			</g>
		</g>
		<circle class="st5" cx="247.57" cy="406.02" r="8.87"/>
	</g>
</g>
</svg>
