<svg xmlns="http://www.w3.org/2000/svg" viewBox="0 0 304.3 341.5"><defs><style>.cls-1{fill:none;stroke:#fa0050;stroke-linecap:round;stroke-linejoin:round;stroke-width:10px;}</style></defs><g id="Capa_2" data-name="Capa 2"><g id="Capa_1-2" data-name="Capa 1"><path class="cls-1" d="M47.61,5H176.35a30.33,30.33,0,0,1,30.33,30.33V298.25a0,0,0,0,1,0,0H25.28a0,0,0,0,1,0,0V27.33A22.33,22.33,0,0,1,47.61,5Z"/><rect class="cls-1" x="5" y="298.25" width="219.07" height="38.25" rx="14.05"/><rect class="cls-1" x="60.53" y="44.94" width="108.6" height="71.52" rx="12.74"/><path class="cls-1" d="M256.91,77.1l31.19,52.34,11.2,18.8v86.65c-6.06,25.35-31,26.11-31,26.11-30.64,0-32.16-24.22-32.16-24.22V141.43c-9.08-25.36-29.42-25-29.42-25"/><path class="cls-1" d="M299.3,148.24v24a22.35,22.35,0,1,1-11.2-42.84Z"/></g></g></svg>