<svg xmlns="http://www.w3.org/2000/svg" viewBox="0 0 362 361.37"><defs><style>.cls-1{fill:none;stroke:#fa0050;stroke-linecap:round;stroke-linejoin:round;stroke-width:10px;}</style></defs><g id="Capa_2" data-name="Capa 2"><g id="Capa_1-2" data-name="Capa 1"><path class="cls-1" d="M299.08,182.84l52.82-55.65a13.58,13.58,0,0,0-.27-19l-21.57-21.5c-7.59,7-31,19-55.63-3.16s-7.59-55.63-7.59-55.63L245.67,8.41a12.87,12.87,0,0,0-17.78.32L8.94,225.82a13.29,13.29,0,0,0-.19,18.7L29.8,266.23S58.24,246,80.37,265.6s23.39,43,8.21,60.69L110,348.52a13.35,13.35,0,0,0,18.8.41L184,296.58"/><circle class="cls-1" cx="281.72" cy="281.09" r="75.28"/><line class="cls-1" x1="281.72" y1="323.64" x2="281.72" y2="238.54"/><line class="cls-1" x1="239.18" y1="281.09" x2="324.27" y2="281.09"/><line class="cls-1" x1="186.94" y1="52.91" x2="193.69" y2="59.66"/><line class="cls-1" x1="298.91" y1="165.25" x2="305.67" y2="172"/><line class="cls-1" x1="205.26" y1="72.55" x2="224.38" y2="91.66"/><line class="cls-1" x1="236.04" y1="103.32" x2="255.15" y2="122.44"/><line class="cls-1" x1="266.68" y1="133.97" x2="285.8" y2="153.08"/></g></g></svg>