<?xml version="1.0" encoding="UTF-8"?><svg id="Capa_2" xmlns="http://www.w3.org/2000/svg" viewBox="0 0 180.12 178.45"><defs><style>.cls-1,.cls-2,.cls-3,.cls-4,.cls-5,.cls-6{stroke-linecap:round;stroke-linejoin:round;}.cls-1,.cls-3,.cls-6,.cls-7{stroke:#100423;}.cls-1,.cls-6,.cls-8{fill:#c1f9fe;}.cls-9{fill:#f1fcff;stroke:#72e6ff;}.cls-9,.cls-3,.cls-4,.cls-10{stroke-width:1.81px;}.cls-9,.cls-10,.cls-7{stroke-miterlimit:10;}.cls-2{stroke-width:3.62px;}.cls-2,.cls-3,.cls-4,.cls-10,.cls-11{fill:none;}.cls-2,.cls-10{stroke:#5fbbd5;}.cls-12{fill:#451f4d;opacity:.7;}.cls-12,.cls-13,.cls-8,.cls-14,.cls-15{stroke-width:0px;}.cls-12,.cls-15{isolation:isolate;}.cls-4{stroke:#47839f;}.cls-5{fill:#f4f0f5;stroke:#cab8cd;stroke-width:.79px;}.cls-6{fill-rule:evenodd;}.cls-7{fill:#72e6ff;}.cls-11{stroke:#231f20;stroke-linejoin:bevel;stroke-width:2.83px;}.cls-13{fill:#5fbbd5;}.cls-14{fill:#ea044e;}.cls-15{fill:#40004d;opacity:.25;}</style></defs><g id="Capa_1-2"><path class="cls-3" d="m155.94,172.95H53.33c-2.64.08-5.2-.89-7.13-2.69-1.93-1.81-3.05-4.3-3.14-6.94V34.08c.09-2.64,1.21-5.14,3.14-6.94,1.93-1.81,4.49-2.77,7.13-2.69h102.61c2.64-.08,5.2.89,7.13,2.69,1.93,1.81,3.05,4.3,3.14,6.94v129.23c-.09,2.64-1.21,5.14-3.14,6.94-1.93,1.81-4.49,2.78-7.13,2.69Z"/><polygon class="cls-5" points="8.2 5.55 23.61 5.55 27.46 24.81 23.61 28.66 23.61 90.29 8.2 90.29 8.2 28.66 4.35 24.81 8.2 5.55"/><polygon class="cls-1" points=".5 90.29 31.31 90.29 31.31 101.84 27.46 105.69 31.31 109.55 31.31 163.47 .5 163.47 .5 109.55 4.35 105.69 .5 101.84 .5 90.29"/><rect class="cls-7" x="4.35" y="163.47" width="23.11" height="11.55" transform="translate(31.81 338.49) rotate(180)"/><line class="cls-11" x1="15.91" y1="155.77" x2="15.91" y2="117.25"/><path class="cls-13" d="m155.94,172.95H53.33c-2.64.08-5.2-.89-7.13-2.69-1.93-1.81-3.05-4.3-3.14-6.94V41.32c.09-2.64,1.21-5.14,3.14-6.94,1.93-1.81,4.49-2.77,7.13-2.69h102.61c2.64-.08,5.2.89,7.13,2.69,1.93,1.81,3.05,4.3,3.14,6.94v121.99c-.09,2.64-1.21,5.14-3.14,6.94-1.93,1.81-4.49,2.78-7.13,2.69Z"/><path class="cls-8" d="m155.94,165.7H53.33c-2.64.08-5.2-.89-7.13-2.69-1.93-1.81-3.05-4.3-3.14-6.94V34.08c.09-2.64,1.21-5.14,3.14-6.94,1.93-1.81,4.49-2.77,7.13-2.69h102.61c2.64-.08,5.2.89,7.13,2.69,1.93,1.81,3.05,4.3,3.14,6.94v121.99c-.09,2.64-1.21,5.14-3.14,6.94-1.93,1.81-4.49,2.78-7.13,2.69Z"/><path class="cls-4" d="m166.21,156.07c-.09,2.64-1.21,5.14-3.14,6.94-1.93,1.81-4.49,2.78-7.13,2.69H53.33c-2.64.08-5.2-.89-7.13-2.69-1.93-1.81-3.05-4.3-3.14-6.94"/><path class="cls-9" d="m153.53,31.69H55.74c-3,0-5.43,2.43-5.43,5.43v115.9c0,3,2.43,5.43,5.43,5.43h97.79c3,0,5.43-2.43,5.43-5.43V37.13c0-3-2.43-5.43-5.43-5.43Z"/><path class="cls-14" d="m124.2,17.2h-9.78v-6.52c0-2.59-1.03-5.08-2.86-6.91-1.83-1.83-4.32-2.86-6.92-2.86s-5.08,1.03-6.92,2.86c-1.83,1.83-2.86,4.32-2.86,6.91v6.52h-9.78c-3.46,0-6.77,1.37-9.22,3.82-2.45,2.44-3.82,5.76-3.82,9.22v5.09h65.2v-5.09c0-3.46-1.37-6.77-3.82-9.22-2.45-2.44-5.76-3.82-9.22-3.82Z"/><path class="cls-12" d="m104.64,11.73c1.5,0,2.72-1.22,2.72-2.72s-1.22-2.72-2.72-2.72-2.72,1.22-2.72,2.72,1.22,2.72,2.72,2.72Z"/><path class="cls-15" d="m137.23,29.83h-65.2v5.43h65.2v-5.43Z"/><path class="cls-3" d="m124.2,17.2h-9.78v-6.52c0-2.59-1.03-5.08-2.86-6.91-1.83-1.83-4.32-2.86-6.92-2.86s-5.08,1.03-6.92,2.86c-1.83,1.83-2.86,4.32-2.86,6.91v6.52h-9.78c-3.46,0-6.77,1.37-9.22,3.82-2.45,2.44-3.82,5.76-3.82,9.22v5.09h65.2v-5.09c0-3.46-1.37-6.77-3.82-9.22-2.45-2.44-5.76-3.82-9.22-3.82Z"/><path class="cls-2" d="m137.23,62.48h-43.46"/><path class="cls-10" d="m75.66,57.05h-7.24c-1,0-1.81.81-1.81,1.81v7.24c0,1,.81,1.81,1.81,1.81h7.24c1,0,1.81-.81,1.81-1.81v-7.24c0-1-.81-1.81-1.81-1.81Z"/><path class="cls-2" d="m137.23,95.08h-43.46"/><path class="cls-10" d="m75.66,89.64h-7.24c-1,0-1.81.81-1.81,1.81v7.24c0,1,.81,1.81,1.81,1.81h7.24c1,0,1.81-.81,1.81-1.81v-7.24c0-1-.81-1.81-1.81-1.81Z"/><path class="cls-2" d="m137.23,127.68h-43.46"/><path class="cls-10" d="m75.66,122.24h-7.24c-1,0-1.81.81-1.81,1.81v7.24c0,1,.81,1.81,1.81,1.81h7.24c1,0,1.81-.81,1.81-1.81v-7.24c0-1-.81-1.81-1.81-1.81Z"/><path class="cls-6" d="m179.43,143.72c-.1-.87-1.11-1.52-1.98-1.52-2.82,0-5.33-1.66-6.38-4.22-1.07-2.63-.38-5.69,1.72-7.62.66-.61.74-1.62.19-2.32-1.45-1.84-3.09-3.49-4.88-4.93-.7-.56-1.73-.48-2.34.19-1.84,2.03-5.14,2.79-7.69,1.73-2.65-1.12-4.33-3.8-4.16-6.69.05-.91-.61-1.7-1.51-1.8-2.3-.27-4.62-.27-6.93-.02-.89.1-1.56.87-1.52,1.76.1,2.86-1.59,5.5-4.22,6.57-2.52,1.03-5.8.28-7.63-1.74-.61-.66-1.62-.75-2.33-.19-1.85,1.45-3.53,3.11-4.98,4.93-.57.71-.48,1.73.18,2.34,2.15,1.94,2.84,5.03,1.72,7.69-1.06,2.53-3.69,4.16-6.7,4.16-.98-.03-1.67.62-1.78,1.51-.27,2.31-.27,4.67-.01,7.01.1.87,1.14,1.52,2.02,1.52,2.68-.07,5.26,1.59,6.34,4.22,1.08,2.63.38,5.69-1.72,7.62-.66.61-.74,1.62-.19,2.32,1.43,1.82,3.07,3.48,4.87,4.93.71.57,1.73.49,2.35-.19,1.84-2.04,5.14-2.79,7.68-1.73,2.66,1.11,4.33,3.8,4.17,6.69-.05.91.61,1.7,1.51,1.8,1.18.14,2.36.21,3.55.21s2.25-.06,3.38-.19c.89-.1,1.56-.87,1.52-1.76-.1-2.86,1.59-5.5,4.22-6.57,2.54-1.04,5.8-.28,7.63,1.74.61.66,1.62.74,2.33.19,1.84-1.45,3.52-3.1,4.98-4.93.57-.71.49-1.73-.18-2.34-2.15-1.94-2.84-5.03-1.73-7.69,1.05-2.5,3.58-4.18,6.3-4.18h.38c.88.08,1.7-.6,1.8-1.5.27-2.32.28-4.67.01-7.01h0Zm-30.57,13.76c-5.67,0-10.28-4.61-10.28-10.28s4.61-10.28,10.28-10.28,10.28,4.61,10.28,10.28-4.61,10.28-10.28,10.28h0Z"/></g></svg>