<?xml version="1.0" encoding="UTF-8"?><svg id="Capa_2" xmlns="http://www.w3.org/2000/svg" viewBox="0 0 165.74 151.8"><defs><style>.cls-1{fill:#c1f9fe;stroke-linecap:round;stroke-linejoin:round;}.cls-1,.cls-2{stroke:#100423;}.cls-2{fill:#72e6ff;stroke-miterlimit:10;}</style></defs><g id="Capa_1-2"><g id="g2825"><path id="path2815" class="cls-1" d="m40.36,43.01C40.36,19.53,59.39.5,82.87.5c18.82,0,34.78,12.22,40.38,29.16"/><path id="path2817" class="cls-1" d="m110,42.96c4.85-9.44,14.68-15.89,26.02-15.89,16.14,0,29.23,13.09,29.23,29.23s-13.09,29.23-29.23,29.23H29.73c-16.14,0-29.23-13.09-29.23-29.23s13.09-29.23,29.23-29.23c4.45,0,8.67.99,12.44,2.77"/><path id="path2819" class="cls-1" d="m82.87,11.13c11,0,20.7,5.57,26.43,14.04"/><path id="path2821" class="cls-1" d="m11.13,56.3c0-10.27,8.33-18.6,18.6-18.6"/><path id="path2823" class="cls-1" d="m136.01,37.7c10.27,0,18.6,8.33,18.6,18.6"/></g><path id="path2251-6" class="cls-2" d="m86.84,109.87c0,4.89-3.57,8.86-7.97,8.86s-7.97-3.97-7.97-8.86,7.97-17.71,7.97-17.71c0,0,7.97,12.82,7.97,17.71Z"/><path id="path2251-6-2" class="cls-2" d="m69.24,139.46c0,4.89-3.57,8.86-7.97,8.86s-7.97-3.97-7.97-8.86,7.97-17.71,7.97-17.71c0,0,7.97,12.82,7.97,17.71Z"/><path id="path2251-6-3" class="cls-2" d="m48.33,110.89c0,4.89-3.57,8.86-7.97,8.86s-7.97-3.97-7.97-8.86,7.97-17.71,7.97-17.71c0,0,7.97,12.82,7.97,17.71Z"/><path id="path2251-5" class="cls-2" d="m127.04,108.87c0,4.89-3.57,8.86-7.97,8.86s-7.97-3.97-7.97-8.86,7.97-17.71,7.97-17.71c0,0,7.97,12.82,7.97,17.71Z"/><path id="path2931" class="cls-2" d="m107.06,142.44c0,4.89-3.57,8.86-7.97,8.86s-7.97-3.97-7.97-8.86,7.97-17.71,7.97-17.71c0,0,7.97,12.82,7.97,17.71Z"/></g></svg>