<svg xmlns="http://www.w3.org/2000/svg" viewBox="0 0 472.29 106"><defs><style>.cls-1{fill:#fff;}</style></defs><title>LOGO_SVG</title><g id="Capa_2" data-name="Capa 2"><g id="Modo_de_aislamiento" data-name="Modo de aislamiento"><path class="cls-1" d="M280.47,28.12a7.07,7.07,0,0,0-7.14,7.28c-.06,3.37,2,5.37,5.6,5.37a7.07,7.07,0,0,0,7.14-7.28c.06-3.36-2-5.37-5.6-5.37"/><path class="cls-1" d="M250.78,60.68a11.45,11.45,0,0,1-1.2,3.52A10.92,10.92,0,0,1,247.45,67a9.49,9.49,0,0,1-2.83,1.83,8.58,8.58,0,0,1-6.18.13,5.89,5.89,0,0,1-2.15-1.47A6,6,0,0,1,235,65.15,8.64,8.64,0,0,1,234.6,62a11.12,11.12,0,0,1,.91-3.93,10.83,10.83,0,0,1,2.1-3.24,9.93,9.93,0,0,1,3-2.18,8.6,8.6,0,0,1,3.65-.8,7.17,7.17,0,0,1,3.05.63,6,6,0,0,1,2.23,1.75A6.71,6.71,0,0,1,250.78,57a9.82,9.82,0,0,1,0,3.67M267.9,30a.81.81,0,0,0-.61-.29h-8.92a.8.8,0,0,0-.78.64s-3.44,17.07-3.66,18.26c-2.24-3.95-6.62-6.38-12.07-6.38C231,42.27,223.15,51,223.15,63c0,9.89,5.95,16.54,14.8,16.54a14.16,14.16,0,0,0,10.76-4.79c-.18.85-.36,1.75-.55,2.78a.74.74,0,0,0,.17.64.79.79,0,0,0,.61.29h8.9a.78.78,0,0,0,.77-.64l9.45-47.13a.76.76,0,0,0-.16-.65"/><path class="cls-1" d="M282,45.64h-9.34a.82.82,0,0,0-.82.59l-6.32,31.35a.71.71,0,0,0,.18.62.86.86,0,0,0,.64.27h9.34a.82.82,0,0,0,.82-.6l6.32-31.35a.69.69,0,0,0-.18-.61.84.84,0,0,0-.64-.27"/><path class="cls-1" d="M161.81,52l-9.18,0c.06-.28,2.37-11.74,2.45-12.22.44,0,8.51.08,8.51.08,4.07,0,6.31,1.89,6.31,5.34,0,4.29-3,6.75-8.09,6.75m-14,22.93c.92-4.09,2.62-13.16,2.67-13.4l11.07.07c12.25,0,19.86-6.55,19.86-17.09,0-9.23-6.33-14.75-16.94-14.75H145.84a.79.79,0,0,0-.78.64l-9.22,46.07a.84.84,0,0,0,.19.66.81.81,0,0,0,.61.29h3.7l4.5,0a3.11,3.11,0,0,0,3-2.46"/><path class="cls-1" d="M347.68,68.82c-4.57,0-7.3-2.58-7.3-6.9,0-5.42,3.79-9.35,9-9.35,4.57,0,7.3,2.58,7.3,6.9,0,5.42-3.79,9.35-9,9.35m2.41-26.76c-12.1,0-20.88,8.63-20.88,20.52,0,10.18,7,16.75,17.77,16.75,12.1,0,20.88-8.63,20.88-20.52,0-10.18-7-16.75-17.77-16.75"/><path class="cls-1" d="M313.57,60.68a11.46,11.46,0,0,1-1.21,3.52A10.89,10.89,0,0,1,310.24,67a9.62,9.62,0,0,1-2.83,1.83,8.6,8.6,0,0,1-6.19.13,5.94,5.94,0,0,1-2.14-1.47,6.06,6.06,0,0,1-1.34-2.32,8.64,8.64,0,0,1-.36-3.12,11.42,11.42,0,0,1,3-7.17,10,10,0,0,1,3-2.18,8.53,8.53,0,0,1,3.65-.8,7.09,7.09,0,0,1,3,.63,5.85,5.85,0,0,1,2.23,1.75A6.72,6.72,0,0,1,313.57,57a10.26,10.26,0,0,1,0,3.67m17-30.64a.79.79,0,0,0-.61-.29H321a.79.79,0,0,0-.77.64s-3.45,17.07-3.66,18.26c-2.24-3.95-6.62-6.38-12.07-6.38-10.85,0-18.72,8.72-18.72,20.74,0,9.89,6,16.54,14.8,16.54a14.2,14.2,0,0,0,10.77-4.79c-.19.85-.36,1.75-.56,2.78a.81.81,0,0,0,.78.93h8.9a.79.79,0,0,0,.78-.64l9.45-47.13a.8.8,0,0,0-.17-.65"/><path class="cls-1" d="M397.26,44.76a27.6,27.6,0,0,0-13.78-2.65c-7.66.67-12.05,5.24-11.47,11.92.36,4,2.66,7.12,7.05,9.45L383.91,66c2,1.06,2.17,1.56,2.22,2.19.13,1.44-1.52,1.8-2.52,1.89-3,.26-6.72-.89-10.67-3.32a.76.76,0,0,0-.6-.1.79.79,0,0,0-.49.38L368,73.9a.8.8,0,0,0,.24,1,24.43,24.43,0,0,0,16.07,4.26c8.52-.75,13.06-5.25,12.43-12.37-.37-4.29-2.44-7-7.12-9.37l-4.37-2.21c-2.56-1.4-2.7-1.76-2.76-2.43,0-.37-.13-1.51,2.32-1.73a18.08,18.08,0,0,1,8.75,2,.78.78,0,0,0,.6,0,.75.75,0,0,0,.45-.42l3.08-6.92a.79.79,0,0,0-.39-1"/><path class="cls-1" d="M445.64,30.23a.86.86,0,0,0-.78-.48H432.05s-.55.86-.71,1.09c0,0-12.5,17.74-13.38,19.44-.24-1.61-6.38-19.17-6.38-19.17-.1-.36-.82-.3-.82-.3h-11A.85.85,0,0,0,399,32L410.58,61.4l-3.49,17.11a.87.87,0,0,0,.19.71.86.86,0,0,0,.65.31h8.71a2.48,2.48,0,0,0,2.43-2l3.17-16.21,23.32-30.17a.86.86,0,0,0,.08-.91"/><path class="cls-1" d="M458.73,61.62A10.89,10.89,0,0,1,457.58,65a10.36,10.36,0,0,1-2,2.66,8.75,8.75,0,0,1-2.7,1.74,8.14,8.14,0,0,1-5.9.13,5.55,5.55,0,0,1-2.05-1.4,5.79,5.79,0,0,1-1.27-2.22,8.07,8.07,0,0,1-.35-3,10.87,10.87,0,0,1,.87-3.76,10.5,10.5,0,0,1,2-3.09A9.65,9.65,0,0,1,449,54a8.14,8.14,0,0,1,3.48-.76,6.79,6.79,0,0,1,2.91.6,5.6,5.6,0,0,1,2.13,1.68,6.41,6.41,0,0,1,1.17,2.62,9.33,9.33,0,0,1,0,3.5m13.38-16.76a.74.74,0,0,0-.59-.28h-8.66a.76.76,0,0,0-.75.62s-.33,1.65-.54,2.81v0a11.53,11.53,0,0,0-8-4,19.23,19.23,0,0,0-8,1.26,22.09,22.09,0,0,0-14.1,20.81c.08,8,5.3,13.36,13.26,13.73a15.69,15.69,0,0,0,11.38-4c-.17.85-.39,2-.54,2.75a.78.78,0,0,0,.76.9h8.64a.76.76,0,0,0,.75-.62l6.66-33.41a.76.76,0,0,0-.17-.63"/><path class="cls-1" d="M193.62,56.23c1.65-4.34,4.62-6.39,9-6.39s6.77,2.06,6.91,5.33Zm9.26-14.13c-11.89,0-20.52,8.66-20.52,20.6,0,10.28,6.92,16.67,18,16.67A23.18,23.18,0,0,0,214,75.14a.77.77,0,0,0,.12-1.17l-5.48-5.65a.74.74,0,0,0-.9-.13A14.68,14.68,0,0,1,200.63,70c-5.1,0-8.06-2.33-8.13-6.39l25-.08a.8.8,0,0,0,.78-.62,28.75,28.75,0,0,0,.89-6.34c0-8.94-6.23-14.5-16.25-14.5"/><path class="cls-1" d="M67.07.09H2.19C1.17-.43,0,1.42,0,1.42v9.4C0,22.34,8.13,28.69,22.9,28.69l52.32.1a10.07,10.07,0,0,1,9.23,14,9.68,9.68,0,0,1-9.07,6H16.58a1.82,1.82,0,0,0-1.76,1.38L1.26,103.73a1.8,1.8,0,0,0,.33,1.57A1.83,1.83,0,0,0,3,106H21c6.93,0,10.26-5.75,11-8.77l5.44-19.82H73.21c21.42,0,39.47-16.87,40-38.29C113.66,17.11,95.89.31,74,.31Z"/></g></g></svg>