<?xml version="1.0" encoding="utf-8"?>
<!-- Generator: Adobe Illustrator 24.2.3, SVG Export Plug-In . SVG Version: 6.00 Build 0)  -->
<svg version="1.1" id="Capa_1" xmlns="http://www.w3.org/2000/svg" xmlns:xlink="http://www.w3.org/1999/xlink" x="0px" y="0px"
	 viewBox="0 0 562.4 562.4" style="enable-background:new 0 0 562.4 562.4;" xml:space="preserve">
<style type="text/css">
	.st0{fill:none;stroke:#FA0050;stroke-width:22.47;stroke-linecap:round;stroke-linejoin:round;}
</style>
<g id="Capa_2_1_">
	<g id="Capa_1-2">
		<path class="st0" d="M457.3,204.9l93.9,64.6V516c0,19.4-15.7,35.1-35.2,35.2H46.5c-19.4,0-35.2-15.7-35.2-35.2V269.5l93.9-64.6"/>
		<polyline class="st0" points="81.7,480.7 199,386.8 363.4,386.8 480.7,480.7 		"/>
		<line class="st0" x1="11.2" y1="269.5" x2="152.1" y2="363.4"/>
		<path class="st0" d="M457.3,316.4V34.7c0-13-10.5-23.5-23.5-23.5l0,0H128.6c-13,0-23.5,10.5-23.5,23.5l0,0v297.4"/>
		<path class="st0" d="M311.9,135.6h-45.3c-16.5,0-29.9,13.4-29.9,29.9c0,12.2,7.4,23.2,18.8,27.7l46,18.4
			c15.3,6.1,22.8,23.5,16.7,38.9c-4.5,11.4-15.6,18.9-27.8,18.8H245"/>
		<line class="st0" x1="281.1" y1="306.7" x2="281.1" y2="269.5"/>
		<line class="st0" x1="281.1" y1="128.6" x2="281.1" y2="91.4"/>
		<line class="st0" x1="551.2" y1="269.5" x2="402.8" y2="363.4"/>
	</g>
</g>
</svg>
