<svg xmlns="http://www.w3.org/2000/svg" viewBox="0 0 1554.5 1554.5"><defs><style>.cls-1{fill:none;stroke:#fff;stroke-linecap:round;stroke-linejoin:round;stroke-width:45px;}</style></defs><g id="Capa_2" data-name="Capa 2"><g id="Capa_1-2" data-name="Capa 1"><polyline class="cls-1" points="480.87 292.78 283.98 489.68 185.53 391.23"/><polyline class="cls-1" points="480.87 653.75 283.98 850.64 185.53 752.2"/><path class="cls-1" d="M613.17,1400.74h-525a65.63,65.63,0,0,1-65.63-65.63V219.39a65.63,65.63,0,0,1,65.63-65.63H875.7a65.63,65.63,0,0,1,65.63,65.63v853.2Z"/><polyline class="cls-1" points="613.17 1400.74 613.17 1072.59 941.33 1072.59"/><rect class="cls-1" x="1138.22" y="481.91" width="262.52" height="721.94"/><path class="cls-1" d="M1400.74,63.08A131.33,131.33,0,0,1,1532,194.34v550.1"/><line class="cls-1" x1="1269.48" y1="1335.11" x2="1269.48" y2="1532"/><rect class="cls-1" x="1138.22" y="22.5" width="262.52" height="525.04"/><rect class="cls-1" x="1203.85" y="1203.85" width="131.26" height="131.26"/><line class="cls-1" x1="547.54" y1="481.91" x2="810.07" y2="481.91"/><line class="cls-1" x1="547.54" y1="810.07" x2="810.07" y2="810.07"/></g></g></svg>