<svg width="128" height="128" viewBox="0 0 128 128" fill="none" xmlns="http://www.w3.org/2000/svg">
<path d="M68.5 35.9398C66.29 38.5298 61.58 48.3698 61.58 48.3698C60.58 50.5298 60.97 53.3698 63.14 54.3698C65.31 55.3698 67.79 54.5998 69.48 51.6898C74.69 42.6898 74.78 41.8498 75.48 39.3598C75.7456 38.5088 75.7971 37.6055 75.63 36.7298C74.68 32.6398 69.4 34.8498 68.5 35.9398Z" fill="#DCF8FF"/>
<path opacity="0.16" d="M68.5 35.9398C66.29 38.5298 61.58 48.3698 61.58 48.3698C60.58 50.5298 60.97 53.3698 63.14 54.3698C65.31 55.3698 67.79 54.5998 69.48 51.6898C74.69 42.6898 74.78 41.8498 75.48 39.3598C75.7456 38.5088 75.7971 37.6055 75.63 36.7298C74.68 32.6398 69.4 34.8498 68.5 35.9398Z" fill="#40004D"/>
<path d="M73.8 33.6699C74.7264 34.4757 75.3594 35.5659 75.6 36.7699C75.7683 37.6427 75.7341 38.5424 75.5 39.3999C74.8 41.8899 74.77 42.8199 69.5 51.7299C67.69 54.7999 65.33 55.3999 63.16 54.4099C60.99 53.4099 60.41 51.0899 61.41 48.9199C61.41 48.9199 66.31 37.9699 68.75 35.6999" stroke="#100423" stroke-linecap="round" stroke-linejoin="round"/>
<path d="M51.29 52.9398C49.482 52.827 47.667 52.948 45.89 53.2998C44.25 53.6498 43.97 54.6798 43.83 56.2098C43.69 57.7398 44.29 58.0498 45.28 58.9498C45.78 59.4098 46.75 58.6798 46.2 57.8498C45.65 57.0198 47.2 55.7098 47.97 56.5498C48.58 57.2098 48.97 57.7598 49.86 57.5498C50.75 57.3398 52.39 56.4798 52.57 55.1898C52.6404 54.7255 52.5525 54.251 52.3203 53.8428C52.088 53.4346 51.7251 53.1165 51.29 52.9398Z" fill="#F9B495" stroke="#100423" stroke-linecap="round" stroke-linejoin="round"/>
<path d="M71.61 48.2702C70.9 46.2702 67.67 45.8202 66.26 46.3402C64.61 46.9502 50.98 52.2502 50.6 52.4402C50.52 54.0202 51.6 56.5502 52.55 56.8502L68.62 53.6602C69.1837 53.5251 69.7131 53.2742 70.1746 52.9235C70.6362 52.5728 71.0197 52.1299 71.3009 51.623C71.5821 51.1161 71.7548 50.5563 71.808 49.9791C71.8612 49.4019 71.7938 48.8199 71.61 48.2702Z" fill="#DCF8FF"/>
<path opacity="0.16" d="M71.61 48.2702C70.9 46.2702 67.67 45.8202 66.26 46.3402C64.61 46.9502 50.98 52.2502 50.6 52.4402C50.52 54.0202 51.6 56.5502 52.55 56.8502L68.62 53.6602C69.1837 53.5251 69.7131 53.2742 70.1746 52.9235C70.6362 52.5728 71.0197 52.1299 71.3009 51.623C71.5821 51.1161 71.7548 50.5563 71.808 49.9791C71.8612 49.4019 71.7938 48.8199 71.61 48.2702Z" fill="#40004D"/>
<path d="M62.39 47.8501C60.39 48.6701 50.91 52.2601 50.6 52.4101C50.55 53.9701 51.54 56.4101 52.55 56.8201L69.76 53.6101" stroke="#100423" stroke-linecap="round" stroke-linejoin="round"/>
<path d="M41.65 58.32L43.13 55.39C43.1955 55.256 43.2875 55.1368 43.4004 55.0395C43.5134 54.9422 43.6449 54.8689 43.7871 54.824C43.9292 54.7791 44.079 54.7636 44.2274 54.7784C44.3757 54.7931 44.5195 54.8379 44.65 54.91C44.8952 55.0493 45.0781 55.2767 45.1617 55.546C45.2453 55.8153 45.2232 56.1063 45.1 56.36L43.62 59.27L41.65 58.32Z" fill="#AE98B3" stroke="#100423" stroke-linecap="round" stroke-linejoin="round"/>
<path d="M40.07 64.9698C39.9025 64.9706 39.7374 64.9293 39.59 64.8498C39.4599 64.7869 39.3437 64.6988 39.2479 64.5906C39.1522 64.4824 39.079 64.3562 39.0324 64.2194C38.9859 64.0826 38.967 63.9379 38.9769 63.7938C38.9868 63.6497 39.0253 63.5089 39.09 63.3798L41.7 58.1098C41.8233 57.8613 41.9946 57.6396 42.204 57.4577C42.4134 57.2758 42.6567 57.1371 42.92 57.0498C43.1832 56.9613 43.4616 56.9272 43.7384 56.9495C44.0151 56.9719 44.2845 57.0502 44.53 57.1798L49.34 59.6298C49.4713 59.6954 49.5884 59.7863 49.6846 59.8972C49.7808 60.0082 49.8543 60.1369 49.9007 60.2762C49.9471 60.4155 49.9657 60.5626 49.9552 60.709C49.9448 60.8555 49.9057 60.9985 49.84 61.1298C49.7744 61.2611 49.6835 61.3782 49.5726 61.4744C49.4616 61.5706 49.3329 61.644 49.1936 61.6904C49.0543 61.7369 48.9072 61.7554 48.7608 61.745C48.6143 61.7346 48.4713 61.6954 48.34 61.6298L43.62 59.2198L41.06 64.3898C40.9644 64.5682 40.8213 64.7167 40.6466 64.8191C40.472 64.9214 40.2724 64.9736 40.07 64.9698Z" fill="#CAB8CD" stroke="#100423" stroke-linecap="round" stroke-linejoin="round"/>
<path d="M77.99 98.27C77.99 101.632 78.987 104.919 80.855 107.715C82.723 110.51 85.378 112.689 88.4844 113.976C91.5907 115.263 95.0089 115.599 98.3065 114.943C101.604 114.287 104.633 112.668 107.011 110.291C109.388 107.913 111.007 104.884 111.663 101.587C112.319 98.2889 111.983 94.8707 110.696 91.7644C109.409 88.6581 107.23 86.003 104.435 84.135C101.639 82.267 98.3523 81.27 94.99 81.27C90.4813 81.27 86.1573 83.0611 82.9692 86.2492C79.7811 89.4373 77.99 93.7613 77.99 98.27ZM83.5 98.27C83.5 95.9955 84.1745 93.7721 85.4381 91.881C86.7017 89.9898 88.4978 88.5158 90.5991 87.6454C92.7005 86.775 95.0127 86.5473 97.2435 86.991C99.4743 87.4347 101.523 88.53 103.132 90.1383C104.74 91.7466 105.835 93.7957 106.279 96.0265C106.723 98.2573 106.495 100.57 105.625 102.671C104.754 104.772 103.28 106.568 101.389 107.832C99.4979 109.096 97.2745 109.77 95 109.77C91.95 109.77 89.0249 108.558 86.8683 106.402C84.7116 104.245 83.5 101.32 83.5 98.27Z" fill="#563E5B"/>
<path d="M77.99 98.27C77.99 101.632 78.987 104.919 80.855 107.715C82.723 110.51 85.378 112.689 88.4844 113.976C91.5907 115.263 95.0088 115.599 98.3065 114.943C101.604 114.287 104.633 112.668 107.011 110.291C109.388 107.913 111.007 104.884 111.663 101.587C112.319 98.2889 111.983 94.8707 110.696 91.7644C109.409 88.6581 107.23 86.003 104.435 84.135C101.639 82.267 98.3523 81.27 94.99 81.27C90.4813 81.27 86.1573 83.0611 82.9692 86.2492C79.7811 89.4373 77.99 93.7613 77.99 98.27ZM83.5 98.27C83.5 95.9955 84.1745 93.7721 85.4381 91.881C86.7017 89.9898 88.4978 88.5158 90.5991 87.6454C92.7005 86.775 95.0127 86.5473 97.2435 86.991C99.4743 87.4347 101.523 88.53 103.132 90.1383C104.74 91.7466 105.835 93.7957 106.279 96.0265C106.723 98.2573 106.495 100.57 105.625 102.671C104.754 104.772 103.28 106.568 101.389 107.832C99.4979 109.096 97.2745 109.77 95 109.77C91.95 109.77 89.0249 108.558 86.8683 106.402C84.7116 104.245 83.5 101.32 83.5 98.27Z" stroke="#100423" stroke-linecap="round" stroke-linejoin="round"/>
<path d="M94.99 104.27C98.3037 104.27 100.99 101.584 100.99 98.27C100.99 94.9563 98.3037 92.27 94.99 92.27C91.6763 92.27 88.99 94.9563 88.99 98.27C88.99 101.584 91.6763 104.27 94.99 104.27Z" fill="#DCF8FF" stroke="#100423" stroke-linecap="round" stroke-linejoin="round"/>
<path d="M82.105 78.1685L84.3913 76.8485L96.5863 97.9708C96.7613 98.274 96.8088 98.6343 96.7182 98.9725C96.6275 99.3106 96.4063 99.5989 96.1031 99.774C95.8 99.949 95.4397 99.9965 95.1015 99.9058C94.7633 99.8152 94.475 99.594 94.3 99.2908L82.105 78.1685Z" fill="#F1FCFF" stroke="#100423" stroke-linecap="round" stroke-linejoin="round"/>
<path opacity="0.28" d="M84.39 76.8501L82.11 78.1801L84.57 82.4501L84.99 82.2001C85.64 81.8201 86.27 81.4801 86.89 81.2001L84.39 76.8501Z" fill="#40004D"/>
<path d="M77.33 66.2699C77.1018 65.4514 76.712 64.6868 76.1834 64.0215C75.6548 63.3562 74.9983 62.8035 74.2525 62.3961C73.5068 61.9888 72.687 61.735 71.8415 61.6497C70.996 61.5645 70.1421 61.6496 69.33 61.8999C62.41 63.5299 62.23 63.7499 55.33 65.5199C54.6253 65.6947 53.9636 66.0112 53.3851 66.45C52.8066 66.8888 52.3235 67.4407 51.9652 68.0722C51.6069 68.7037 51.3808 69.4016 51.3009 70.1232C51.2209 70.8449 51.2887 71.5753 51.5 72.2699C52.37 75.0599 54.34 76.2699 57.79 75.7399L72.5 73.7899C76.41 73.2699 78.1 69.2699 77.33 66.2699Z" fill="#467F99"/>
<path d="M72.55 61.8001C71.5003 61.5935 70.4179 61.6208 69.38 61.8801C62.46 63.5101 62.28 63.7301 55.38 65.5001C54.6685 65.669 53.9993 65.982 53.4135 66.4198C52.8277 66.8575 52.3379 67.4107 51.9743 68.0451C51.6107 68.6795 51.381 69.3818 51.2995 70.1085C51.2179 70.8351 51.2861 71.5708 51.5 72.2701C52.37 75.0601 54.34 76.2701 57.79 75.7401L74.5 73.4901" stroke="#100423" stroke-linecap="round" stroke-linejoin="round"/>
<path d="M56.41 106.14C54.62 106.134 52.8757 105.575 51.4165 104.538C49.9572 103.501 48.8546 102.038 48.26 100.35L45.59 92.71C45.2112 91.6219 45.2795 90.4278 45.78 89.39C46.0279 88.8762 46.3758 88.4169 46.8034 88.0392C47.2309 87.6614 47.7295 87.3727 48.27 87.19L49.97 86.6C50.2843 86.4926 50.6284 86.5144 50.9266 86.6607C51.2248 86.807 51.4526 87.0657 51.56 87.38C51.6674 87.6943 51.6456 88.0384 51.4993 88.3366C51.353 88.6347 51.0943 88.8626 50.78 88.97L49.09 89.55C48.8609 89.6277 48.6493 89.7499 48.4674 89.9094C48.2855 90.069 48.1369 90.2629 48.03 90.48C47.819 90.9212 47.7903 91.4278 47.95 91.89L50.62 99.53C51.101 100.854 52.0215 101.974 53.228 102.702C54.4345 103.43 55.8541 103.722 57.25 103.53L83.25 99.95C83.5665 99.9261 83.8803 100.023 84.1276 100.222C84.375 100.421 84.5374 100.707 84.5819 101.021C84.6265 101.335 84.5498 101.655 84.3674 101.915C84.1851 102.174 83.9107 102.355 83.6 102.42L57.6 106.01C57.2065 106.078 56.809 106.122 56.41 106.14Z" fill="#E0D6E2"/>
<path d="M49.28 89.27C49.3132 89.397 49.394 89.5064 49.5058 89.5753C49.6176 89.6442 49.7516 89.6674 49.88 89.64L50.29 89.54L52.29 93.92L52.67 93.83C52.2687 93.9612 51.934 94.2429 51.7362 94.616C51.5385 94.989 51.4933 95.4242 51.61 95.83L53.92 103.12C53.9545 103.219 54.0015 103.313 54.06 103.4C54.7919 103.584 55.5518 103.628 56.3 103.53L73.44 101.27L73.3 100.44C72.7323 97.1246 72.9376 93.723 73.9 90.5L74.12 89.78H73.97L70.61 89.65C70.1972 89.6323 69.8025 89.4754 69.4903 89.2048C69.178 88.9343 68.9664 88.566 68.89 88.16L68.21 84.58C68.1131 84.0543 67.9119 83.5534 67.6182 83.1069C67.3245 82.6603 66.9443 82.2771 66.5 81.98L62.07 78.98L53.4 83.16L49.95 83.99C49.6932 84.0517 49.4712 84.2126 49.3326 84.4374C49.1939 84.6622 49.1499 84.9328 49.21 85.19L49.4 86.01L48.99 86.11C48.8616 86.1408 48.7506 86.2213 48.6813 86.3337C48.612 86.4461 48.5899 86.5814 48.62 86.71L49.28 89.27Z" fill="#DCF8FF"/>
<path d="M56 90.4599L51.22 91.6299L52.22 93.9499L52.6 93.8598C52.1987 93.991 51.8639 94.2728 51.6662 94.6459C51.4685 95.0189 51.4232 95.4541 51.54 95.8598L51.67 96.2699L57.22 94.8998C60.25 94.1298 58.98 89.7499 56 90.4599Z" fill="#72E6FF"/>
<path opacity="0.16" d="M70.62 89.6C70.2072 89.5823 69.8125 89.4254 69.5002 89.1548C69.1879 88.8843 68.9764 88.516 68.9 88.11L68.22 84.53C68.1158 84.0125 67.9101 83.5207 67.6149 83.083C67.3197 82.6454 66.9408 82.2705 66.5 81.98L62.07 78.98L53.4 83.16L49.95 83.99C49.6932 84.0517 49.4712 84.2126 49.3326 84.4374C49.1939 84.6622 49.1499 84.9328 49.21 85.19L49.4 86.01L48.99 86.11C48.8616 86.1408 48.7506 86.2213 48.6813 86.3337C48.612 86.4461 48.5899 86.5814 48.62 86.71L48.77 87.33C51.3682 87.6862 54.0143 87.3765 56.46 86.43C57.6354 87.9033 58.7111 89.4534 59.68 91.07C60.5662 92.6063 61.2614 94.2451 61.75 95.95C62.3239 96.0208 62.9018 96.0542 63.48 96.05C64.01 96.05 63.85 96.05 63.85 96.05L64.85 100.68L65.52 102.33L68.92 101.86L67.72 93.86L68.72 91.86L72.08 91.99C72.6236 92.0076 73.1557 91.8302 73.58 91.49C73.66 91.17 73.75 90.84 73.84 90.49L74.06 89.77H73.91L70.62 89.6Z" fill="#40004D"/>
<path d="M39.3354 66.0391L34.9257 74.7236L38.0286 76.2992L42.4383 67.6146L39.3354 66.0391Z" fill="#563E5B" stroke="#100423" stroke-linecap="round" stroke-linejoin="round"/>
<path d="M74.59 88.02L74.12 89.75L73.9 90.47C72.9375 93.693 72.7322 97.0947 73.3 100.41L73.41 101.09" stroke="#100423" stroke-linecap="round" stroke-linejoin="round"/>
<path d="M90.98 69.58L62.11 78.96L66.54 81.96C67.4152 82.5544 68.0192 83.4713 68.22 84.51L68.9 88.09C68.9764 88.4961 69.1879 88.8644 69.5002 89.1349C69.8125 89.4054 70.2072 89.5623 70.62 89.58L73.98 89.71C74.4481 89.7281 74.9107 89.604 75.307 89.3541C75.7032 89.1042 76.0146 88.7403 76.2 88.31C77.7691 84.7458 80.468 81.7974 83.88 79.92C89.88 76.46 93.99 75.92 98.47 77C99.2836 77.1816 100.13 77.1569 100.931 76.9281C101.733 76.6993 102.465 76.2737 103.06 75.69C105.06 73.69 107.77 71.09 109.36 69.54C109.511 69.4004 109.624 69.2238 109.687 69.0277C109.749 68.8315 109.76 68.6224 109.718 68.4208C109.675 68.2193 109.581 68.0321 109.445 67.8778C109.309 67.7234 109.135 67.607 108.94 67.54L90.98 69.58Z" fill="#FA0050"/>
<path opacity="0.28" d="M109.63 68.3301L103.19 71.6601C101.451 72.5514 99.5245 73.0175 97.57 73.0201H93.5L88.02 74.5001L88.15 77.3201C92.9 75.9001 94.87 76.1601 98.45 77.0001C99.2718 77.1936 100.129 77.1759 100.942 76.9486C101.755 76.7212 102.498 76.2917 103.1 75.7001C105.1 73.7601 107.81 71.1101 109.4 69.5601C109.552 69.3985 109.654 69.1968 109.695 68.9788C109.736 68.7608 109.713 68.5356 109.63 68.3301Z" fill="#40004D"/>
<path d="M90.98 69.58L62.11 78.96L66.54 81.96C67.4152 82.5544 68.0192 83.4713 68.22 84.51L68.9 88.09C68.9764 88.4961 69.1879 88.8644 69.5002 89.1349C69.8125 89.4054 70.2072 89.5623 70.62 89.58L73.97 89.71C74.4395 89.7287 74.9036 89.6037 75.3002 89.3518C75.6969 89.0999 76.0073 88.733 76.19 88.3C77.7546 84.7322 80.4594 81.7847 83.88 79.92C89.88 76.48 94.27 76.04 98.47 77C99.2836 77.1816 100.13 77.1569 100.931 76.9281C101.733 76.6993 102.465 76.2737 103.06 75.69C105.06 73.69 107.77 71.09 109.36 69.54C109.511 69.4004 109.624 69.2238 109.687 69.0277C109.749 68.8315 109.76 68.6224 109.718 68.4208C109.675 68.2193 109.581 68.0321 109.445 67.8778C109.309 67.7234 109.135 67.607 108.94 67.54L90.98 69.58Z" stroke="#100423" stroke-linecap="round" stroke-linejoin="round"/>
<path d="M63.6 73.15L62.11 78.96L78.28 80.4C79.4343 80.4981 80.5956 80.3234 81.67 79.89L92.92 75.33C94.1283 74.8445 95.1388 73.9677 95.79 72.84L97.79 68.62C97.8614 68.4752 97.8911 68.3133 97.8758 68.1525C97.8604 67.9917 97.8006 67.8384 97.703 67.7097C97.6054 67.581 97.474 67.4819 97.3233 67.4237C97.1726 67.3655 97.0088 67.3504 96.85 67.38L90.5 68.2C89.2534 68.4123 88.0308 68.7473 86.85 69.2L83.15 70.2C79.6091 71.2023 75.9202 71.5779 72.25 71.31L66.61 70.89C65.9232 70.8552 65.2459 71.0623 64.6959 71.4752C64.146 71.8881 63.7582 72.4807 63.6 73.15Z" fill="#563E5B"/>
<path opacity="0.28" d="M97.91 68.1998L97.59 67.5698L94.65 71.0898C93.9283 71.9474 93.0036 72.6109 91.96 73.0198L82.1 76.8798C80.8236 77.449 79.4061 77.6232 78.03 77.3798L62.24 74.5598L62.11 78.9598L78.28 80.3998C79.4343 80.4979 80.5956 80.3232 81.67 79.8898L92.92 75.3298C94.1283 74.8443 95.1388 73.9675 95.79 72.8398L97.91 68.1998Z" fill="#40004D"/>
<path d="M63.6 73.15L62.11 78.96L78.28 80.4C79.4343 80.4981 80.5956 80.3234 81.67 79.89L92.92 75.33C94.1283 74.8445 95.1388 73.9677 95.79 72.84L97.79 68.62C97.8614 68.4752 97.8911 68.3133 97.8758 68.1525C97.8604 67.9917 97.8006 67.8384 97.703 67.7097C97.6054 67.581 97.474 67.4819 97.3233 67.4237C97.1726 67.3655 97.0088 67.3504 96.85 67.38L90.5 68.2C89.2534 68.4123 88.0307 68.7473 86.85 69.2L83.15 70.2C79.6091 71.2023 75.9202 71.5779 72.25 71.31L66.61 70.89C65.9232 70.8552 65.2459 71.0623 64.6959 71.4752C64.146 71.8881 63.7582 72.4807 63.6 73.15Z" stroke="#100423" stroke-linecap="round" stroke-linejoin="round"/>
<path d="M49.99 83.9702C49.7332 84.032 49.5112 84.1928 49.3725 84.4176C49.2339 84.6425 49.1898 84.913 49.25 85.1702L49.44 85.9902L49.03 86.0902C48.9016 86.1211 48.7906 86.2015 48.7213 86.3139C48.6519 86.4263 48.6299 86.5616 48.66 86.6902L49.28 89.2702C49.3131 89.3973 49.394 89.5066 49.5058 89.5756C49.6175 89.6445 49.7516 89.6676 49.88 89.6402L50.29 89.5402L52.29 93.8102" stroke="#100423" stroke-linecap="round" stroke-linejoin="round"/>
<path d="M53.77 102.83L51.58 95.8999C51.5121 95.6845 51.4893 95.4575 51.5132 95.233C51.5371 95.0085 51.6071 94.7914 51.7189 94.5952C51.8306 94.399 51.9816 94.228 52.1624 94.0928C52.3433 93.9577 52.5501 93.8614 52.77 93.8099L55.63 93.1099" stroke="#100423" stroke-linecap="round" stroke-linejoin="round"/>
<path d="M37.63 72.6299C37.3501 73.2061 37.2268 73.8458 37.2725 74.4847C37.3181 75.1236 37.5311 75.7393 37.89 76.2699C39.35 78.4099 42.17 81.9599 45.81 83.6799C53.03 87.0799 65.62 79.5799 65.62 74.5299C65.62 69.4799 58.42 65.3799 45.81 65.3799C41.75 65.3799 38.93 69.9399 37.63 72.6299Z" fill="#FA0050"/>
<path opacity="0.28" d="M43.97 78.1899C50.38 80.4699 59.97 77.8599 65.61 74.3699C65.61 74.4199 65.61 74.4799 65.61 74.5299C65.61 79.5299 53.02 87.0799 45.8 83.6799C42.16 81.9599 39.34 78.4099 37.88 76.2699C37.4999 75.7038 37.2884 75.0414 37.27 74.3599C39.2792 75.9939 41.5425 77.2877 43.97 78.1899Z" fill="#40004D"/>
<path d="M37.63 72.6299C37.3501 73.2061 37.2268 73.8458 37.2725 74.4847C37.3181 75.1236 37.5311 75.7393 37.89 76.2699C39.35 78.4099 42.17 81.9599 45.81 83.6799C53.03 87.0799 65.62 79.5799 65.62 74.5299C65.62 69.4799 58.42 65.3799 45.81 65.3799C41.75 65.3799 38.93 69.9399 37.63 72.6299Z" stroke="#100423" stroke-linecap="round" stroke-linejoin="round"/>
<path d="M49.26 89.5301H49.09C48.8609 89.6078 48.6493 89.73 48.4674 89.8895C48.2855 90.0491 48.1369 90.243 48.03 90.4601C47.819 90.9013 47.7903 91.4079 47.95 91.8701L50.62 99.5101C51.101 100.835 52.0215 101.954 53.228 102.682C54.4345 103.41 55.8541 103.702 57.25 103.51L83.25 99.9301C83.5665 99.9062 83.8803 100.004 84.1276 100.202C84.375 100.401 84.5374 100.687 84.5819 101.001C84.6265 101.315 84.5498 101.635 84.3674 101.895C84.1851 102.154 83.9107 102.335 83.6 102.4L57.6 105.99C57.2088 106.041 56.8147 106.068 56.42 106.07C54.63 106.064 52.8857 105.505 51.4265 104.468C49.9672 103.431 48.8646 101.968 48.27 100.28L45.6 92.6401C45.2212 91.552 45.2895 90.3579 45.79 89.3201C46.0379 88.8063 46.3858 88.347 46.8134 87.9693C47.241 87.5915 47.7396 87.3028 48.28 87.1201" stroke="#100423" stroke-linecap="round" stroke-linejoin="round"/>
<path d="M118 34.27H95C92.7909 34.27 91 36.0609 91 38.27V60.27C91 62.4792 92.7909 64.27 95 64.27H118C120.209 64.27 122 62.4792 122 60.27V38.27C122 36.0609 120.209 34.27 118 34.27Z" fill="#EA044E"/>
<path d="M91 58.27H122V60.27C122 61.3309 121.579 62.3483 120.828 63.0984C120.078 63.8486 119.061 64.27 118 64.27H95C93.9391 64.27 92.9217 63.8486 92.1716 63.0984C91.4214 62.3483 91 61.3309 91 60.27V58.27Z" fill="#C1F9FE"/>
<path d="M118 34.27H95C92.7909 34.27 91 36.0609 91 38.27V60.27C91 62.4792 92.7909 64.27 95 64.27H118C120.209 64.27 122 62.4792 122 60.27V38.27C122 36.0609 120.209 34.27 118 34.27Z" stroke="#100423" stroke-linecap="round" stroke-linejoin="round"/>
<path d="M109.44 40.78H101.36C101.304 40.78 101.251 40.8021 101.212 40.8415C101.172 40.8809 101.15 40.9343 101.15 40.99V42.15C101.15 43.42 102.05 44.15 103.67 44.15H109.44C109.732 44.15 110.012 44.2659 110.218 44.4722C110.424 44.6785 110.54 44.9583 110.54 45.25C110.54 45.5417 110.424 45.8215 110.218 46.0278C110.012 46.2341 109.732 46.35 109.44 46.35H102.97C102.924 46.3509 102.879 46.367 102.843 46.396C102.807 46.4249 102.781 46.465 102.77 46.51L101.25 52.51C101.235 52.5377 101.227 52.5686 101.227 52.6C101.227 52.6314 101.235 52.6623 101.25 52.69C101.27 52.7156 101.296 52.7362 101.326 52.7501C101.355 52.764 101.387 52.7708 101.42 52.77H103.42C103.706 52.7606 103.981 52.6578 104.203 52.4772C104.426 52.2966 104.582 52.0482 104.65 51.77L105.25 49.57H109.37C110.54 49.57 111.661 49.1054 112.488 48.2783C113.315 47.4513 113.78 46.3296 113.78 45.16C113.78 43.9904 113.315 42.8687 112.488 42.0417C111.661 41.2146 110.54 40.75 109.37 40.75" fill="white"/>
<path d="M69.76 32.7901C69.8259 32.9949 69.9448 33.1786 70.1046 33.3226C70.2644 33.4666 70.4595 33.5658 70.67 33.6101C71.6702 33.7651 72.6939 33.6265 73.617 33.2111C74.54 32.7958 75.3226 32.1215 75.87 31.2701C75.976 31.0825 76.0318 30.8707 76.0318 30.6551C76.0318 30.4396 75.976 30.2278 75.87 30.0401L71.74 23.6401L67.5 25.5501L69.76 32.7901Z" fill="#F9B495" stroke="#100423" stroke-linecap="round" stroke-linejoin="round"/>
<path d="M62.24 24.2002L63.82 22.2002C63.9194 21.1562 64.3094 20.1611 64.9458 19.3276C65.5822 18.4941 66.4395 17.8557 67.4203 17.4848C68.4012 17.1138 69.4664 17.0252 70.495 17.229C71.5237 17.4328 72.4746 17.9209 73.2399 18.6378C74.0053 19.3547 74.5543 20.2718 74.8248 21.2849C75.0954 22.2981 75.0765 23.3668 74.7704 24.3698C74.4642 25.3727 73.8831 26.2698 73.093 26.9592C72.3028 27.6487 71.3352 28.1028 70.3 28.2702C65.69 28.9902 64.49 28.7702 64 24.4402L62.24 24.2002Z" fill="#F9B495"/>
<path d="M65.59 22.9098C65.7 22.924 65.8111 22.8941 65.8992 22.8267C65.9872 22.7592 66.045 22.6597 66.06 22.5498V22.1898C66.0744 22.0813 66.0459 21.9714 65.9805 21.8836C65.9151 21.7959 65.818 21.7371 65.71 21.7198C65.6 21.7056 65.4888 21.7354 65.4008 21.8029C65.3127 21.8703 65.2549 21.9699 65.24 22.0798V22.4398C65.2315 22.4937 65.2339 22.5488 65.2469 22.6017C65.26 22.6547 65.2836 22.7046 65.3162 22.7484C65.3488 22.7921 65.3898 22.829 65.4368 22.8567C65.4838 22.8844 65.5359 22.9024 65.59 22.9098Z" fill="#100423"/>
<path d="M72.83 27.15L73.06 26.94C73.76 26.3413 74.3021 25.5796 74.6385 24.7222C74.975 23.8647 75.0955 22.9376 74.9895 22.0226C74.8835 21.1076 74.5543 20.2327 74.0307 19.4748C73.5071 18.717 72.8052 18.0994 71.9869 17.6765C71.1686 17.2537 70.2589 17.0384 69.3378 17.0497C68.4167 17.0611 67.5126 17.2986 66.7049 17.7415C65.8972 18.1843 65.2107 18.8189 64.7059 19.5894C64.2011 20.3599 63.8935 21.2427 63.81 22.16C63.23 22.89 62.24 24.16 62.24 24.16C62.24 24.16 63.33 24.33 64 24.35C64.5 28.12 65.24 28.69 68.92 28.35H69.29" stroke="#100423" stroke-linecap="round" stroke-linejoin="round"/>
<path d="M64.7 19.2701C64.19 19.1401 63.99 18.5001 64.38 17.9001C64.9004 17.2549 65.5629 16.7387 66.3157 16.3918C67.0686 16.0449 67.8914 15.8766 68.72 15.9001C70.0089 15.788 71.3021 16.0607 72.436 16.6837C73.5698 17.3067 74.4935 18.252 75.09 19.4001C76.09 21.4501 75.42 21.7701 75.09 21.7801C74.8682 21.7376 74.6673 21.6213 74.52 21.4501C74.52 21.4501 74.98 22.5501 74.1 22.7301C73.22 22.9101 72.85 21.8201 72.5 21.0001C72.5772 21.1123 72.6252 21.2419 72.6398 21.3773C72.6544 21.5127 72.635 21.6496 72.5833 21.7757C72.5317 21.9017 72.4496 22.0129 72.3442 22.0992C72.2389 22.1855 72.1137 22.2443 71.98 22.2701C71.37 22.4001 70.98 21.8701 70.44 20.9801C70.0938 20.4508 69.6287 20.0097 69.0818 19.6919C68.5349 19.3742 67.9213 19.1887 67.29 19.1501C65.5 19.0401 65.2 19.4501 64.7 19.2701Z" fill="#8C4B46" stroke="#100423" stroke-linecap="round" stroke-linejoin="round"/>
<path d="M77.23 21.5401C77.3712 20.5654 77.3052 19.5718 77.0361 18.6244C76.7671 17.677 76.3012 16.797 75.6689 16.0419C75.0365 15.2868 74.2519 14.6737 73.3664 14.2426C72.4809 13.8115 71.5144 13.5721 70.53 13.5401C66.8 13.1801 62.76 15.0501 62.43 19.3401C63.3 20.6401 65.13 20.5801 66.3 20.4001C66.7179 20.2952 67.154 20.2854 67.5762 20.3714C67.9984 20.4574 68.3959 20.6371 68.7394 20.8971C69.083 21.1572 69.3638 21.491 69.5612 21.874C69.7586 22.257 69.8675 22.6794 69.88 23.1101C70.14 25.9601 72.88 27.4101 76.16 25.5701C76.7795 24.3106 77.1431 22.9409 77.23 21.5401Z" fill="#EA044E" stroke="#100423" stroke-linecap="round" stroke-linejoin="round"/>
<path d="M79.66 73.8499L76.8 74.5099L69.5 64.0499L83.03 59.8799L84.58 64.8799C84.8591 65.7917 84.9527 66.7503 84.8552 67.6989C84.7578 68.6475 84.4713 69.5669 84.0127 70.403C83.5541 71.2391 82.9327 71.9749 82.1851 72.5669C81.4375 73.1589 80.5789 73.5951 79.66 73.8499Z" fill="#5FBBD5" stroke="#100423" stroke-linecap="round" stroke-linejoin="round"/>
<path d="M78.82 67.11C77.82 64.21 74.47 62.17 70.5 63.51C63.77 65.78 63.61 66.01 56.94 68.42C56.2425 68.6487 55.5994 69.0183 55.0505 69.5058C54.5017 69.9933 54.0589 70.5883 53.7495 71.254C53.4401 71.9197 53.2707 72.6418 53.2519 73.3756C53.2331 74.1094 53.3651 74.8393 53.64 75.52C54.77 78.22 56.84 79.18 60.23 78.38L74.75 75.06C78.56 74.14 79.87 70 78.82 67.11Z" fill="#5FBBD5"/>
<path opacity="0.16" d="M64.92 65.7899C66.8878 65.947 68.7949 66.5451 70.5 67.5399C73.2546 69.2241 76.4432 70.0622 79.67 69.9499C83.52 69.6599 84.67 67.4099 84.67 67.4099C84.6056 66.6628 84.3949 65.9357 84.05 65.2699C83.23 63.4799 68.21 64.0299 68.21 64.0299L64.92 65.7899Z" fill="#40004D"/>
<path d="M73.65 63.1198C72.5841 63.0205 71.5094 63.1535 70.5 63.5098C63.77 65.7798 63.61 66.0098 56.94 68.4198C56.2425 68.6486 55.5994 69.0181 55.0505 69.5056C54.5017 69.9931 54.0589 70.5882 53.7495 71.2538C53.4401 71.9195 53.2707 72.6416 53.2519 73.3755C53.2331 74.1093 53.3651 74.8392 53.64 75.5198C54.77 78.2198 56.84 79.1798 60.23 78.3798L76.84 74.5398" stroke="#100423" stroke-linecap="round" stroke-linejoin="round"/>
<path d="M68.9477 101.533L68.9575 101.531C70.1432 101.242 70.87 100.046 70.5807 98.8603L69.2155 93.2644C68.9263 92.0786 67.7305 91.3519 66.5447 91.6412L66.535 91.6435C65.3492 91.9328 64.6225 93.1286 64.9118 94.3144L66.2769 99.9102C66.5662 101.096 67.762 101.823 68.9477 101.533Z" fill="white" stroke="#100423" stroke-linecap="round" stroke-linejoin="round"/>
<path opacity="0.16" d="M70.07 96.7601L69.21 93.2701C69.0547 92.7243 68.6953 92.2592 68.2064 91.9711C67.7175 91.683 67.1365 91.5939 66.5838 91.7225C66.0311 91.851 65.549 92.1873 65.2374 92.6616C64.9258 93.1358 64.8085 93.7118 64.91 94.2701L65.91 98.2701C67.4315 98.274 68.9052 97.7391 70.07 96.7601Z" fill="#40004D"/>
<path d="M56.71 69.52C54.51 70.52 52.64 72.91 54.49 76.59C56.34 80.27 61.49 89.15 64.26 96.59C66.18 97.02 69.7 96.49 70.78 94.25C68.78 87.18 65.93 75.14 63.78 72.25C61.83 69.78 59.62 68.27 56.71 69.52Z" fill="#5FBBD5"/>
<path d="M53.98 76.3599C54.23 76.8999 54.38 77.1299 54.7 77.7499C56.55 81.4299 61.7 89.6899 64.26 96.5399C66.05 97.0799 69.84 96.3499 70.78 94.1999C69.09 88.6499 66.78 78.4499 64.71 73.9399" stroke="#100423" stroke-linecap="round" stroke-linejoin="round"/>
<path d="M71.95 32.2698C68.72 34.0998 66.87 38.0898 65.76 42.3198C64.58 46.7798 64.26 61.1598 64.23 62.0498C64.12 64.9098 68.51 62.5898 72.57 65.0498C75.1247 66.5772 78.0089 67.4689 80.98 67.6498C82.7484 67.7771 84.5189 67.432 86.11 66.6498C86.4071 60.7676 86.0718 54.8704 85.11 49.0598C83.32 38.4698 79.84 27.7898 71.95 32.2698Z" fill="#DCF8FF" stroke="#100423" stroke-linecap="round" stroke-linejoin="round"/>
<path d="M68.83 36.39L68.55 32.39C69.7968 31.3208 71.2553 30.5268 72.83 30.06C74.1669 29.6005 75.6083 29.538 76.98 29.88L78.32 32.58C76.5252 32.3684 74.7072 32.6737 73.08 33.46C71.531 34.2292 70.0998 35.2159 68.83 36.39Z" fill="#DCF8FF"/>
<path d="M68.82 36.1598L68.55 32.3798C69.7968 31.3106 71.2553 30.5166 72.83 30.0498C74.1669 29.5903 75.6083 29.5278 76.98 29.8698L78.27 32.1498" stroke="#100423" stroke-linecap="round" stroke-linejoin="round"/>
<path d="M58.88 104.49C58.13 104.78 58.05 105.16 58.05 105.16L58.22 106.65L72.64 104.72C72.64 104.72 72.9 103.5 72.27 102.97C72.08 102.81 59.7 104.17 58.88 104.49Z" fill="white" stroke="#100423" stroke-linecap="round" stroke-linejoin="round"/>
<path d="M71.11 98.1499C70.98 98.5399 70.41 99.2999 68.77 99.6999C68.1661 99.894 67.5248 99.9418 66.8988 99.8392C66.2729 99.7366 65.6803 99.4866 65.17 99.1099C63.981 100.657 62.2727 101.723 60.36 102.11C57.82 102.55 57.93 105.05 58.28 105.01C59.04 104.9 60.83 104.7 63.03 104.37L68.03 103.62L72.28 102.96C72.28 102.96 72.5 99.9299 71.11 98.1499Z" fill="white" stroke="#100423" stroke-linecap="round" stroke-linejoin="round"/>
<path d="M50.28 55.6799C48.4782 55.493 46.6597 55.5401 44.87 55.8199C43.21 56.1099 42.87 57.1199 42.7 58.6499C42.53 60.1799 43.07 60.4999 44.03 61.4399C44.51 61.9099 45.51 61.2299 45.03 60.3799C44.55 59.5299 46.11 58.2699 46.84 59.1499C47.42 59.8299 47.84 60.3999 48.69 60.2599C49.54 60.1199 51.26 59.2599 51.49 58.0099C51.5869 57.5416 51.5194 57.0543 51.2991 56.6299C51.0787 56.2055 50.7188 55.87 50.28 55.6799Z" fill="#F9B495" stroke="#100423" stroke-linecap="round" stroke-linejoin="round"/>
<path d="M71.81 36.5402L64.43 50.0702C63.9128 51.0917 63.8213 52.2765 64.1755 53.3654C64.5297 54.4542 65.3008 55.3584 66.32 55.8802C68.45 56.9602 70.96 56.2902 72.77 53.4602C78.33 44.7302 78.46 43.8402 79.26 41.3802C79.5519 40.5394 79.6343 39.64 79.5 38.7602C78.77 34.5902 74.09 32.4902 71.81 36.5402Z" fill="#DCF8FF"/>
<path d="M70.8 38.4198L64.8 50.3198C63.72 52.4498 64.21 54.7998 66.33 55.8798C68.46 56.9598 70.84 56.4498 72.78 53.4598C78.4 44.7698 78.47 43.8398 79.27 41.3798C79.5442 40.5352 79.6229 39.6393 79.5 38.7598C79.307 37.5483 78.72 36.4342 77.83 35.5898" stroke="#100423" stroke-linecap="round" stroke-linejoin="round"/>
<path d="M70.64 51.0598C69.94 49.0598 66.7 48.5998 65.29 49.1098C63.64 49.7098 49.99 54.9598 49.61 55.1098C49.5 56.7298 50.64 59.2698 51.5 59.5698L67.58 56.4398C68.148 56.3111 68.683 56.0655 69.1507 55.7186C69.6185 55.3716 70.0088 54.931 70.2967 54.4248C70.5847 53.9185 70.7639 53.3578 70.823 52.7784C70.8821 52.1991 70.8198 51.6137 70.64 51.0598Z" fill="#DCF8FF"/>
<path d="M65.62 48.6802L63.37 49.5702C59.18 51.3402 49.91 54.9902 49.61 55.1402C49.55 56.7102 50.53 59.1402 51.54 59.5702L68.76 56.4202" stroke="#100423" stroke-linecap="round" stroke-linejoin="round"/>
<path d="M37.3 66.9898C37.09 70.3998 31.69 72.8298 28.3 72.6198C26.65 72.5098 24.66 71.4598 24.99 66.2198C25.32 60.9798 27.42 60.2198 29.07 60.2898C32.5 60.4998 37.5 63.5898 37.3 66.9898Z" fill="#EA044E"/>
<path d="M24.98 66.2699C24.65 71.5099 26.64 72.5599 28.29 72.6699H28.5C29.3113 70.7358 29.7783 68.6748 29.88 66.5799C30.0429 64.4902 29.8364 62.3881 29.27 60.3699H29.03C27.41 60.1899 25.31 60.9799 24.98 66.2699Z" fill="#C1F9FE" stroke="#100423" stroke-linecap="round" stroke-linejoin="round"/>
<path d="M27.4346 66.3644C27.605 63.6414 27.1935 61.3996 26.5155 61.3572C25.8375 61.3148 25.1498 63.4878 24.9794 66.2108C24.8091 68.9337 25.2206 71.1755 25.8986 71.2179C26.5765 71.2603 27.2643 69.0873 27.4346 66.3644Z" fill="white"/>
<path d="M37.3 66.9898C37.09 70.3998 31.69 72.8298 28.3 72.6198C26.65 72.5098 24.66 71.4598 24.99 66.2198C25.32 60.9798 27.42 60.2198 29.07 60.2898C32.5 60.4998 37.5 63.5898 37.3 66.9898Z" stroke="#100423" stroke-linecap="round" stroke-linejoin="round"/>
<path d="M36.5 69.27H34.5C33.9696 69.27 33.4609 69.0593 33.0858 68.6842C32.7107 68.3092 32.5 67.8005 32.5 67.27C32.5 66.7396 32.7107 66.2309 33.0858 65.8558C33.4609 65.4807 33.9696 65.27 34.5 65.27H38.5L36.5 69.27Z" fill="#FA0050" stroke="#100423" stroke-linecap="round" stroke-linejoin="round"/>
<path d="M5.5 98.27C5.5 101.632 6.49703 104.919 8.36502 107.715C10.233 110.51 12.888 112.689 15.9944 113.976C19.1007 115.263 22.5189 115.599 25.8165 114.943C29.1142 114.287 32.1433 112.668 34.5208 110.291C36.8983 107.913 38.5174 104.884 39.1734 101.587C39.8293 98.2889 39.4926 94.8707 38.206 91.7644C36.9193 88.6581 34.7403 86.003 31.9447 84.135C29.1491 82.267 25.8623 81.27 22.5 81.27C17.9913 81.27 13.6673 83.0611 10.4792 86.2492C7.29107 89.4373 5.5 93.7613 5.5 98.27ZM11 98.27C11 95.9955 11.6745 93.7721 12.9381 91.881C14.2017 89.9898 15.9978 88.5158 18.0991 87.6454C20.2005 86.775 22.5128 86.5473 24.7435 86.991C26.9743 87.4347 29.0234 88.53 30.6317 90.1383C32.24 91.7466 33.3353 93.7957 33.779 96.0265C34.2228 98.2573 33.995 100.57 33.1246 102.671C32.2542 104.772 30.7802 106.568 28.8891 107.832C26.9979 109.096 24.7745 109.77 22.5 109.77C19.45 109.77 16.5249 108.558 14.3683 106.402C12.2116 104.245 11 101.32 11 98.27Z" fill="#563E5B"/>
<path d="M5.5 98.27C5.5 101.632 6.49703 104.919 8.36502 107.715C10.233 110.51 12.888 112.689 15.9944 113.976C19.1007 115.263 22.5189 115.599 25.8165 114.943C29.1142 114.287 32.1433 112.668 34.5208 110.291C36.8983 107.913 38.5174 104.884 39.1734 101.587C39.8293 98.2889 39.4926 94.8707 38.206 91.7644C36.9193 88.6581 34.7403 86.003 31.9447 84.135C29.1491 82.267 25.8623 81.27 22.5 81.27C17.9913 81.27 13.6673 83.0611 10.4792 86.2492C7.29107 89.4373 5.5 93.7613 5.5 98.27ZM11 98.27C11 95.9955 11.6745 93.7721 12.9381 91.881C14.2017 89.9898 15.9978 88.5158 18.0991 87.6454C20.2005 86.775 22.5128 86.5473 24.7435 86.991C26.9743 87.4347 29.0234 88.53 30.6317 90.1383C32.24 91.7466 33.3353 93.7957 33.779 96.0265C34.2228 98.2573 33.995 100.57 33.1246 102.671C32.2542 104.772 30.7802 106.568 28.8891 107.832C26.9979 109.096 24.7745 109.77 22.5 109.77C19.45 109.77 16.5249 108.558 14.3683 106.402C12.2116 104.245 11 101.32 11 98.27Z" stroke="#100423" stroke-linecap="round" stroke-linejoin="round"/>
<path d="M22.5 104.27C25.8137 104.27 28.5 101.584 28.5 98.27C28.5 94.9563 25.8137 92.27 22.5 92.27C19.1863 92.27 16.5 94.9563 16.5 98.27C16.5 101.584 19.1863 104.27 22.5 104.27Z" fill="#DCF8FF" stroke="#100423" stroke-linecap="round" stroke-linejoin="round"/>
<path d="M41.37 93.27H40.37C37.37 93.27 35.31 91.12 33.18 88.82C31.7321 87.2666 29.9878 86.0187 28.05 85.15C25.931 84.3694 23.675 84.0292 21.42 84.15C18.42 84.34 15.42 84.31 13.18 82.21L12.5 81.55C15.0292 79.7419 17.9746 78.6025 21.0622 78.238C24.1499 77.8735 27.2796 78.2956 30.1603 79.4651C33.0411 80.6345 35.5794 82.5134 37.5392 84.927C39.4991 87.3406 40.8168 90.2105 41.37 93.27Z" fill="#FA0050" stroke="#100423" stroke-linecap="round" stroke-linejoin="round"/>
<path d="M102.41 100.43L93.5 102L81.12 103.27C80.8375 103.302 80.5535 103.225 80.3265 103.053C80.0995 102.882 79.9469 102.631 79.9 102.35L79.59 100.63C79.541 100.351 79.5994 100.064 79.7534 99.827C79.9074 99.5895 80.1455 99.4191 80.42 99.3501L92.5 96.2701L102.99 94.4201C103.127 94.3953 103.268 94.4039 103.4 94.4454C103.533 94.4868 103.654 94.5598 103.752 94.6581C103.85 94.7564 103.923 94.8771 103.965 95.0098C104.006 95.1426 104.015 95.2833 103.99 95.4201L103.46 99.4201C103.405 99.6735 103.275 99.9048 103.088 100.085C102.901 100.264 102.665 100.385 102.41 100.43Z" fill="#E0D6E2"/>
<path opacity="0.28" d="M90.89 100.27L79.82 101.99L79.9 102.43C79.9469 102.71 80.0995 102.962 80.3265 103.133C80.5535 103.304 80.8375 103.382 81.12 103.35L93.5 102L102.39 100.43C102.658 100.381 102.904 100.25 103.094 100.054C103.284 99.859 103.409 99.6092 103.45 99.3398L103.72 97.3398L95.14 99.4598C93.74 99.7398 92.32 99.9998 90.89 100.27Z" fill="#40004D"/>
<path d="M104 95.3801C104.025 95.2433 104.016 95.1025 103.975 94.9698C103.933 94.8371 103.86 94.7164 103.762 94.6181C103.664 94.5198 103.543 94.4468 103.41 94.4053C103.278 94.3639 103.137 94.3552 103 94.3801L92.5 96.2701L80.42 99.4001C80.1455 99.4691 79.9074 99.6395 79.7534 99.8769C79.5994 100.114 79.541 100.401 79.59 100.68L103.95 95.7801L104 95.3801Z" fill="#F4F0F5"/>
<path d="M102.41 100.43L93.5 102L81.12 103.27C80.8375 103.302 80.5535 103.225 80.3265 103.053C80.0995 102.882 79.9469 102.631 79.9 102.35L79.59 100.63C79.541 100.351 79.5994 100.064 79.7534 99.827C79.9074 99.5895 80.1455 99.4191 80.42 99.3501L92.5 96.2701L102.99 94.4201C103.127 94.3953 103.268 94.4039 103.4 94.4454C103.533 94.4868 103.654 94.5598 103.752 94.6581C103.85 94.7564 103.923 94.8771 103.965 95.0098C104.006 95.1426 104.015 95.2833 103.99 95.4201L103.46 99.4201C103.405 99.6735 103.275 99.9048 103.088 100.085C102.901 100.264 102.665 100.385 102.41 100.43Z" stroke="#100423" stroke-linecap="round" stroke-linejoin="round"/>
<path d="M48.59 59.43L47.23 62.11L45.81 61.39C45.634 61.3007 45.4773 61.1776 45.3489 61.0278C45.2205 60.878 45.1229 60.7043 45.0616 60.5167C45.0003 60.3291 44.9766 60.1313 44.9917 59.9346C45.0069 59.7378 45.0607 59.546 45.15 59.37C45.2393 59.1941 45.3624 59.0374 45.5122 58.909C45.662 58.7806 45.8357 58.683 46.0233 58.6217C46.2109 58.5604 46.4087 58.5366 46.6054 58.5518C46.8022 58.567 46.994 58.6207 47.17 58.71L48.59 59.43Z" fill="#563E5B" stroke="#100423" stroke-linecap="round" stroke-linejoin="round"/>
<path d="M47.84 62.23C48.6684 62.23 49.34 61.5584 49.34 60.73C49.34 59.9016 48.6684 59.23 47.84 59.23C47.0115 59.23 46.34 59.9016 46.34 60.73C46.34 61.5584 47.0115 62.23 47.84 62.23Z" fill="#8F7494" stroke="#100423" stroke-linecap="round" stroke-linejoin="round"/>
<path d="M39.0291 62.7783L41.383 63.9736L23.4769 99.2379C23.3984 99.3925 23.2902 99.5301 23.1586 99.6428C23.0269 99.7556 22.8744 99.8413 22.7096 99.8951C22.5448 99.9489 22.371 99.9697 22.1982 99.9564C22.0254 99.943 21.8569 99.8957 21.7023 99.8172C21.3901 99.6587 21.1537 99.3827 21.0451 99.0499C20.9364 98.7171 20.9645 98.3548 21.123 98.0427L39.0291 62.7783Z" fill="#F1FCFF" stroke="#100423" stroke-linecap="round" stroke-linejoin="round"/>
<path d="M42.1313 63.2028L39.3227 61.7767C39.0764 61.6516 38.7755 61.7499 38.6505 61.9961L37.6997 63.8686C37.5747 64.1148 37.6729 64.4157 37.9191 64.5408L40.7278 65.9669C40.974 66.0919 41.275 65.9937 41.4 65.7475L42.3508 63.875C42.4758 63.6288 42.3775 63.3278 42.1313 63.2028Z" fill="#F1FCFF" stroke="#100423" stroke-linecap="round" stroke-linejoin="round"/>
</svg>
