<svg xmlns="http://www.w3.org/2000/svg" viewBox="0 0 1267.49 1537.6"><defs><style>.cls-1{fill:none;stroke:#fff;stroke-linecap:round;stroke-linejoin:round;stroke-width:45px;}</style></defs><g id="Capa_2" data-name="Capa 2"><g id="Capa_1-2" data-name="Capa 1"><line class="cls-1" x1="866.15" y1="1255.52" x2="22.5" y2="1255.52"/><path class="cls-1" d="M444.32,1369.09a16.23,16.23,0,1,1-16.22,16.22,16.23,16.23,0,0,1,16.22-16.22"/><path class="cls-1" d="M866.15,931v454.27a129.84,129.84,0,0,1-129.8,129.79H152.29A129.84,129.84,0,0,1,22.5,1385.31v-1233A129.84,129.84,0,0,1,152.29,22.5H509.22"/><path class="cls-1" d="M1079.16,672.35V523.11a215.59,215.59,0,0,0-132.66-199,82.91,82.91,0,1,0-165.82,0A215.59,215.59,0,0,0,648,523.11V672.35a66.36,66.36,0,0,1-66.34,66.33h563.81A66.35,66.35,0,0,1,1079.16,672.35Z"/><path class="cls-1" d="M929.92,738.68a66.33,66.33,0,1,1-132.66,0"/><path class="cls-1" d="M581.68,324.12c0-100.75,81.69-182.41,182.41-182.41"/><path class="cls-1" d="M482.19,324.12c0-155.68,126.22-281.91,281.9-281.91"/><path class="cls-1" d="M1145.49,324.12c0-100.75-81.68-182.41-182.41-182.41"/><path class="cls-1" d="M1245,324.12c0-155.68-126.23-281.91-281.91-281.91"/></g></g></svg>