<?xml version="1.0" encoding="utf-8"?>
<!-- Generator: Adobe Illustrator 24.2.3, SVG Export Plug-In . SVG Version: 6.00 Build 0)  -->
<svg version="1.1" id="Capa_1" xmlns="http://www.w3.org/2000/svg" xmlns:xlink="http://www.w3.org/1999/xlink" x="0px" y="0px"
	 viewBox="0 0 555.6 563.4" style="enable-background:new 0 0 555.6 563.4;" xml:space="preserve">
<style type="text/css">
	.st0{fill:none;stroke:#FA0050;stroke-width:18.86;stroke-linecap:round;stroke-linejoin:round;}
</style>
<g id="Capa_2_1_">
	<g id="Phone">
		<path class="st0" d="M460.2,36.9v169.3l-220-64.5V36.9c0-15.2,12.3-27.5,27.5-27.5h165.1C447.9,9.4,460.2,21.7,460.2,36.9z"/>
		<path class="st0" d="M460.2,36.9v7.5l-220,69.9V36.9c0-15.2,12.3-27.5,27.5-27.5h165.1C447.9,9.4,460.2,21.7,460.2,36.9z"/>
		<path class="st0" d="M546.2,246.6v126.7c0,9.2-7.4,16.6-16.6,16.6c-1.6,0-3.1-0.2-4.6-0.6L96.6,266.2c-11-8.6-23.9-14.3-37.6-16.8
			c-18.5-3.2-35.2,3.1-45.7,12.8l40.8-134.4c4-13.3,15.2-23.2,28.9-25.4c8.6-1.3,19.6-1,33.2,3l124,36.3l220,64.5l71.4,20.9
			C540.3,229.7,546.2,237.6,546.2,246.6z"/>
		<path class="st0" d="M113.7,300.2c-3.2,18.9-19,32.2-42.5,35c-14.8,1.8-33.9-6.9-41.6-14.6c-14.1-14.1-24.3-31.8-18.5-51l2.3-7.5
			c10.5-9.7,27.2-16,45.7-12.8c13.7,2.5,26.6,8.2,37.6,16.8C111.1,277.5,115.6,289.1,113.7,300.2z"/>
		<polygon class="st0" points="452.1,368.4 452.1,407.5 328.8,554 264.6,554 240.2,434 240.2,431.4 		"/>
		<path class="st0" d="M264.6,554H150.4l-24.5-115.6l83-1.2c8.1-0.1,16.2-1.3,24-3.7l7.3-2.2v2.6L264.6,554z"/>
		<path class="st0" d="M150.4,554H64.8c-16.7,0-25.2-7.1-29.6-14.2c-3.8-6.4-5-13.9-3.3-21.2c13.4-61.9,88.4-80.1,88.4-80.1l0,0
			c3.3,0,6.2,2.3,6.9,5.5L150.4,554z"/>
		<line class="st0" x1="240.2" y1="431.4" x2="240.2" y2="356"/>
		<polygon class="st0" points="452.1,407.5 452.1,554 328.8,554 		"/>
	</g>
</g>
</svg>
