<svg xmlns="http://www.w3.org/2000/svg" viewBox="0 0 1666 1499.18"><defs><style>.cls-1{fill:none;stroke:#fff;stroke-linecap:round;stroke-linejoin:round;stroke-width:45px;}</style></defs><g id="Capa_2" data-name="Capa 2"><g id="Capa_1-2" data-name="Capa 1"><circle class="cls-1" cx="410.09" cy="1255.3" r="221.38"/><path class="cls-1" d="M77.84,1049.83C188.52,877.66,460.11,870,583.71,933.54"/><line class="cls-1" x1="1356.71" y1="931.32" x2="1262.02" y2="682.23"/><path class="cls-1" d="M1577.35,899.35a381.61,381.61,0,0,0-246.12-35"/><circle class="cls-1" cx="1422.12" cy="1255.3" r="221.38"/><path class="cls-1" d="M1005.73,949.54,1166.33,888a31.61,31.61,0,0,1,43,29.1v20.11A189.75,189.75,0,0,1,1157.6,1070L1045,1189.4"/><line class="cls-1" x1="1041.28" y1="196.45" x2="1137.49" y2="196.45"/><path class="cls-1" d="M772.46,304.48a144.46,144.46,0,0,0,265.22-79.13v-28.9"/><path class="cls-1" d="M1041.28,196.23H884.48c-51.43,0-113.86,150.93-145.48,115.38a173.32,173.32,0,1,1,302.28-115.38Z"/><path class="cls-1" d="M821.23,1381.71a94.87,94.87,0,0,1-94.88-94.88V1121.62a176.8,176.8,0,0,0-83.5-150.34L517.61,892.91a94.86,94.86,0,0,1-27.38-134.79L711.61,441.86a94.88,94.88,0,0,1,160.09,7.33l48.07,84.12a178.17,178.17,0,0,0,154.47,89.38,94.88,94.88,0,0,1,0,189.75A367.41,367.41,0,0,1,783.78,670L703.32,785l40.17,25.31A365.59,365.59,0,0,1,916.1,1121.62v165.21a94.78,94.78,0,0,1-94.87,94.88Z"/><rect class="cls-1" x="22.5" y="497.98" width="387.37" height="387.37" rx="32.81"/></g></g></svg>