<svg xmlns="http://www.w3.org/2000/svg" viewBox="0 0 1654.43 1401"><defs><style>.cls-1{fill:none;stroke:#fff;stroke-linecap:round;stroke-linejoin:round;stroke-width:45px;}</style></defs><g id="Capa_2" data-name="Capa 2"><g id="Capa_1-2" data-name="Capa 1"><path class="cls-1" d="M1535.29,444.58l-175,217.71-189.81-178.5V797.6H477.84V483.79L286,662.29,98.8,444.58s175-199.4,266.54-295c36.53-38.15,83.3-64.64,126.34-82.69,64.84-27.24,121.18-35.32,121.18-35.32s6.92-.41,19.17-1.06a185.59,185.59,0,0,0-6.25,47.86c0,102.26,82.9,185.15,185.16,185.15A185.27,185.27,0,0,0,987.89,23.71c39.38,1.3,74.8,3.74,101.8,7.83,16.5,2.5,35.65,10.62,56.58,22.93C1295.74,142.41,1535.29,444.58,1535.29,444.58Z"/><path class="cls-1" d="M996.09,78.34A185.14,185.14,0,0,1,810.94,263.49c-102.26,0-185.16-82.89-185.16-185.15A185.59,185.59,0,0,1,632,30.48c56.6-3,227.27-11,355.86-6.77A184.55,184.55,0,0,1,996.09,78.34Z"/><path class="cls-1" d="M1170.49,797.6v500.47a80.44,80.44,0,0,1-80.43,80.43H558.27a80.44,80.44,0,0,1-80.43-80.43V797.6Z"/><line class="cls-1" x1="1353.18" y1="946.13" x2="1631.93" y2="901.37"/><line class="cls-1" x1="22.5" y1="1340.86" x2="301.25" y2="1296.1"/><path class="cls-1" d="M260.66,977.64c8,2-199.6-107.78-199.6-107.78"/><path class="cls-1" d="M1534.37,1358.13c8,2-199.6-107.79-199.6-107.79"/></g></g></svg>