<svg xmlns="http://www.w3.org/2000/svg" viewBox="0 0 1462.51 1462.51"><defs><style>.cls-1{fill:none;stroke:#fff;stroke-linecap:round;stroke-linejoin:round;stroke-width:45px;}</style></defs><g id="Capa_2" data-name="Capa 2"><g id="Capa_1-2" data-name="Capa 1"><path class="cls-1" d="M700.44,84.13h677.94A61.63,61.63,0,0,1,1440,145.76V1378.38a61.64,61.64,0,0,1-61.63,61.63H84.13a61.63,61.63,0,0,1-61.63-61.63V145.76A61.63,61.63,0,0,1,84.13,84.13H269"/><path class="cls-1" d="M660,654.14,484.92,454,309.64,654C287.3,679.52,269,672.65,269,638.75V84.13A61.63,61.63,0,0,1,330.65,22.5H638.79a61.65,61.65,0,0,1,61.65,61.63l.18,554.74C700.64,672.83,682.35,679.7,660,654.14Z"/><line class="cls-1" x1="885.33" y1="392.28" x2="1255.11" y2="392.28"/><line class="cls-1" x1="885.33" y1="638.81" x2="1255.11" y2="638.81"/><line class="cls-1" x1="207.39" y1="885.33" x2="1255.11" y2="885.33"/><line class="cls-1" x1="207.39" y1="1131.85" x2="1255.11" y2="1131.85"/></g></g></svg>