<svg xmlns="http://www.w3.org/2000/svg" viewBox="0 0 1824.5 1520.56"><defs><style>.cls-1{fill:none;stroke:#fff;stroke-linecap:round;stroke-linejoin:round;stroke-width:45px;}</style></defs><g id="Capa_2" data-name="Capa 2"><g id="Capa_1-2" data-name="Capa 1"><path class="cls-1" d="M496,1273.13s356.62,219,514.85,219c142.4,0,177.7-628.91,177.7-628.91"/><path class="cls-1" d="M571.6,1089.3s249.4,466.14,439.27,402.85c218.56-72.85,310.47-736.69,310.47-736.69"/><path class="cls-1" d="M26.22,759.85c.32,2.68.55,5.36.66,8.06,1.67,40.6,39.75,378.17,99.59,446.39.33.2.66.48,1,.68l21.76,32.27a107.72,107.72,0,0,0,67.45,45.64c78.25,16.07,240.31,37.24,306.1-44.3,11.48-14.23,18.38-31.68,21.66-49.84,1.47-8.19,4.66-20.72,6.29-29.68,13.76-75.52,60.3-239,207.37-275.41,0,0,124.89-40.46,283.16-14.1,1.64.27,3.28.61,4.91,1,17.55,3.77,137.78,24.91,223.88-82.37,0,0,86.43-95.5,232.71-109.15,0,0,179.51-25.1,270.07-36,23.4-2.8,36.5-29.13,24.86-50.21C1726.83,474.15,1512.24,112.94,1313,68.84c-1.82-.4-3.6-.82-5.39-1.33-34.3-9.9-438.92-120.32-863.15,46.27a111.41,111.41,0,0,0-11.64,5.38C378.17,148.29-19.94,374.6,26.22,759.85Z"/><path class="cls-1" d="M470.82,514l-3.49.8-15.85,3.44L269.7,559.62a5.34,5.34,0,0,0-4,6.4l6.56,28.81c7.19,31.62,33.46,43.94,74,34.73l143.53-32.38a28.16,28.16,0,1,1,12.5,54.91L341.36,688.71a5.25,5.25,0,0,0-4.09,5l-3.85,159a5.25,5.25,0,0,0,6.42,5.24l51-11.6c19.11-4.35,24.68-22.3,24.95-31.12l2.59-58.07,102.46-23.31a112.74,112.74,0,1,0-50-219.85"/></g></g></svg>