<svg width="16" height="16" viewBox="0 0 16 16" fill="none" xmlns="http://www.w3.org/2000/svg">
<path d="M13.8263 6.91949L14.1163 4.66949C14.1348 4.5044 14.1186 4.33724 14.0687 4.17879C14.0187 4.02034 13.9362 3.8741 13.8263 3.74949C13.7172 3.62656 13.5832 3.52821 13.4332 3.46098C13.2832 3.39374 13.1206 3.35915 12.9563 3.35949H4.69629L4.63629 2.97949C4.59376 2.70376 4.45488 2.45202 4.24435 2.26895C4.03382 2.08588 3.76523 1.98332 3.48627 1.97949H2.37628C2.24367 1.97949 2.1165 2.03217 2.02274 2.12594C1.92897 2.21971 1.87628 2.34688 1.87628 2.47949C1.87628 2.6121 1.92897 2.73928 2.02274 2.83305C2.1165 2.92681 2.24367 2.97949 2.37628 2.97949H3.48627C3.52545 2.97918 3.5634 2.99327 3.5929 3.01907C3.62239 3.04488 3.64137 3.08061 3.64627 3.11949L5.11627 11.3595C5.1588 11.6352 5.29768 11.887 5.50821 12.07C5.71874 12.2531 5.98733 12.3557 6.2663 12.3595H6.5463V13.5195C6.5463 13.6521 6.59895 13.7793 6.69272 13.873C6.78649 13.9668 6.91369 14.0195 7.0463 14.0195C7.1789 14.0195 7.30607 13.9668 7.39984 13.873C7.49361 13.7793 7.5463 13.6521 7.5463 13.5195V12.3595H10.5463V13.5195C10.5463 13.6521 10.599 13.7793 10.6927 13.873C10.7865 13.9668 10.9137 14.0195 11.0463 14.0195C11.1789 14.0195 11.3061 13.9668 11.3998 13.873C11.4936 13.7793 11.5463 13.6521 11.5463 13.5195V12.3595H12.3763C12.5089 12.3595 12.6361 12.3068 12.7298 12.213C12.8236 12.1193 12.8763 11.9921 12.8763 11.8595C12.8763 11.7269 12.8236 11.5997 12.7298 11.5059C12.6361 11.4122 12.5089 11.3595 12.3763 11.3595H6.2663C6.22711 11.3598 6.18916 11.3457 6.15967 11.3199C6.13018 11.2941 6.11119 11.2584 6.10629 11.2195L5.82629 9.68949H10.6863C11.4575 9.69051 12.2025 9.40942 12.7809 8.8992C13.3593 8.38898 13.7311 7.68485 13.8263 6.91949ZM4.87628 4.35949H12.9563C13.0013 4.3596 13.0445 4.37759 13.0763 4.40949C13.0854 4.42995 13.0901 4.4521 13.0901 4.47449C13.0901 4.49689 13.0854 4.51903 13.0763 4.53949L12.7963 6.78949C12.7306 7.31361 12.4759 7.79575 12.0801 8.14554C11.6843 8.49532 11.1745 8.68873 10.6463 8.68949H5.64627L4.87628 4.35949Z" fill="#fff"/>
</svg>
