<?xml version="1.0" encoding="utf-8"?>
<!-- Generator: Adobe Illustrator 24.2.3, SVG Export Plug-In . SVG Version: 6.00 Build 0)  -->
<svg version="1.1" id="Capa_1" xmlns="http://www.w3.org/2000/svg" xmlns:xlink="http://www.w3.org/1999/xlink" x="0px" y="0px"
	 viewBox="0 0 531.9 560" style="enable-background:new 0 0 531.9 560;" xml:space="preserve">
<style type="text/css">
	.st0{fill:none;stroke:#FA0050;stroke-width:18.86;stroke-linecap:round;stroke-linejoin:round;}
</style>
<g id="Capa_2_1_">
	<g id="Capa_1-2">
		<path class="st0" d="M310.7,34.8c114.5,14.4,211.7,110.8,211.7,227.5c0,73.1-35,141.9-94.1,184.9v103.2"/>
		<path class="st0" d="M75.5,374v-11.7H21.1c-6.5,0-11.7-5.3-11.7-11.8c0-1.2,0.2-2.4,0.6-3.6C54.9,207.8,87.2,58.1,240.2,35.8"/>
		<path class="st0" d="M193.1,550.5v-47.1h-47.1c-7.3,0-14.5-1.1-21.4-3.3"/>
		<path class="st0" d="M263.7,9.4h23.5c13,0,23.5,10.5,23.5,23.5v164.7c0,13-10.5,23.5-23.5,23.5h-23.5c-13,0-23.5-10.5-23.5-23.5
			V33C240.2,20,250.7,9.4,263.7,9.4z"/>
		<circle class="st0" cx="275.5" cy="303.5" r="35.3"/>
		<path class="st0" d="M310,203.5c55.3,19.1,84.6,79.4,65.5,134.6c-19.1,55.3-79.4,84.6-134.6,65.5c-55.3-19.1-84.6-79.4-65.5-134.6
			c10.6-30.7,34.8-54.9,65.5-65.5"/>
		<path class="st0" d="M28.4,450.5c0-16.2,13.2-29.4,29.4-29.4h11.8c16.2,0.3,29.2,13.7,28.9,29.9c-0.3,15.8-13,28.6-28.9,28.9H57.8
			C41.6,479.9,28.4,466.8,28.4,450.5z"/>
		<path class="st0" d="M264.7,337.1C224.2,402,155.9,450.5,99,450.5"/>
	</g>
</g>
</svg>
