<?xml version="1.0" encoding="utf-8"?>
<!-- Generator: Adobe Illustrator 24.2.3, SVG Export Plug-In . SVG Version: 6.00 Build 0)  -->
<svg version="1.1" id="Capa_1" xmlns="http://www.w3.org/2000/svg" xmlns:xlink="http://www.w3.org/1999/xlink" x="0px" y="0px"
	 viewBox="0 0 591.4 591.4" style="enable-background:new 0 0 591.4 591.4;" xml:space="preserve">
<style type="text/css">
	.st0{fill:none;stroke:#FA0050;stroke-width:18.86;stroke-linecap:round;stroke-linejoin:round;}
</style>
<g id="Capa_2_1_">
	<g id="Capa_1-2">
		<path class="st0" d="M387.8,552.1L283.3,582l29.9-104.5l178.7-178.7c20.9-20.4,54.3-20,74.7,0.8c20.1,20.5,20.1,53.3,0,73.8
			L387.8,552.1z"/>
		<line class="st0" x1="469.4" y1="321.1" x2="544.1" y2="395.8"/>
		<line class="st0" x1="313.1" y1="477.4" x2="387.8" y2="552.1"/>
		<path class="st0" d="M233.5,457.5H34.3c-13.7,0-24.9-11.1-24.9-24.9c0,0,0,0,0,0V84.1c0-13.7,11.1-24.9,24.9-24.9c0,0,0,0,0,0
			h448.1c13.7,0,24.9,11.1,24.9,24.9v149.4"/>
		<line class="st0" x1="133.9" y1="9.4" x2="133.9" y2="133.9"/>
		<line class="st0" x1="382.8" y1="9.4" x2="382.8" y2="133.9"/>
		<line class="st0" x1="9.4" y1="183.7" x2="507.3" y2="183.7"/>
	</g>
</g>
</svg>
