<svg xmlns="http://www.w3.org/2000/svg" viewBox="0 0 514.04 459.45"><defs><style>.cls-1{fill:none;stroke:#fff;stroke-linecap:round;stroke-linejoin:round;stroke-width:22.73px;}</style></defs><title>YT-LG</title><g id="Capa_2" data-name="Capa 2"><g id="Modo_de_aislamiento" data-name="Modo de aislamiento"><path class="cls-1" d="M11.36,66A54.58,54.58,0,0,1,66,11.36H448.09A54.58,54.58,0,0,1,502.68,66V393.5a54.55,54.55,0,0,1-54.59,54.59H66A54.54,54.54,0,0,1,11.36,393.5Z"/><path class="cls-1" d="M175.13,163.51a15.57,15.57,0,0,1,23.7-13.37l159.78,66.22a15.62,15.62,0,0,1,0,26.8L198.83,309.43a15.68,15.68,0,0,1-15.78,0,15.84,15.84,0,0,1-7.92-13.59Z"/></g></g></svg>